<svg width="180" height="100" xmlns="http://www.w3.org/2000/svg">
 <!-- Created with SVG Editor - http://github.com/mzalive/SVG Editor/ -->

 <g>
  <title>background</title>
  <rect fill="#fff" id="canvas_background" height="102" width="182" y="-1" x="-1"/>
 </g>
 <g>
  <title>Layer 1</title>
  <g stroke="null" id="svg_5">
   <path fill="#884cb2" stroke="null" id="svg_4" d="m113.368929,79.860303c0.714051,0 1.298274,0.581627 1.298274,1.298274s0,3.894822 0,3.894822l-49.33441,0c0,0 0,-3.178175 0,-3.894822s0.581627,-1.298274 1.298274,-1.298274l4.336235,0c0.215513,-17.287816 11.5079,-22.860008 11.5079,-29.847318c0,-7.023662 -11.500111,-7.491041 -11.609166,-29.873284l-4.23497,0c-0.716647,0 -1.298274,-0.581627 -1.298274,-1.298274s0,-3.894822 0,-3.894822l49.33441,0c0,0 0,3.178175 0,3.894822s-0.584223,1.298274 -1.298274,1.298274l-3.972718,0c-0.109055,22.382243 -11.609166,22.849622 -11.609166,29.873284c0,6.98731 11.294983,12.559502 11.510497,29.847318l4.071387,0zm-19.185893,-29.847318c0,-7.052224 11.502707,-7.491041 11.609166,-29.873284l-31.322158,0c0.106458,22.382243 11.609166,22.82106 11.609166,29.873284c0,6.779587 -11.29758,12.494589 -11.510497,29.847318l1.968183,0c0.462186,-1.539753 1.996745,-3.391092 4.647821,-4.762069l3.445619,-1.757863c2.165521,-1.119112 3.463795,-1.874708 3.894822,-2.26419s0.919178,-1.261922 1.464453,-2.61732c0.573837,1.352801 1.064585,2.225242 1.480032,2.61732s1.698142,1.145078 3.853277,2.26419l3.427443,1.757863c2.635496,1.370977 4.164863,3.222316 4.619259,4.762069l2.321314,0c-0.212917,-17.35273 -11.5079,-23.067732 -11.5079,-29.847318zm-2.703006,-3.811732c-0.311586,0.612785 -0.573837,1.778635 -0.781561,3.49755c-0.051931,0.51931 -0.166179,1.300871 -0.350534,2.342086c-0.181758,-1.041216 -0.298603,-1.822777 -0.350534,-2.342086c-0.21032,-1.718915 -0.472572,-2.882168 -0.786754,-3.49755c-0.314182,-0.610189 -1.199605,-1.708529 -2.661462,-3.300212l-3.248281,-3.552078c-2.220048,-2.394017 -3.642957,-4.112932 -4.268725,-5.151551c3.853277,2.453738 7.615675,3.681905 11.287194,3.681905s7.446899,-1.228167 11.326142,-3.681905c-0.649137,1.038619 -2.077238,2.757534 -4.281708,5.151551l-3.235299,3.552078c-1.454067,1.591684 -2.33949,2.690024 -2.648479,3.300212z"/>
  </g>
  <text xml:space="preserve" text-anchor="start" font-family="Oswald, sans-serif" font-size="32" id="svg_7" y="61.084756" x="8.871714" stroke-width="0" stroke="#000" fill="#884cb2">time</text>
  <text xml:space="preserve" text-anchor="start" font-family="Oswald, sans-serif" font-size="32" id="svg_8" y="61.087298" x="110.890387" stroke-width="0" stroke="#000" fill="#884cb2">plan</text>
 </g>
</svg>