<?xml version="1.0" encoding="UTF-8" standalone="no"?>
<!-- Created with Inkscape (http://www.inkscape.org/) -->

<svg
   version="1.1"
   id="svg2"
   xml:space="preserve"
   width="5333.3379"
   height="5333.3379"
   viewBox="0 0 5333.3379 5333.3379"
   sodipodi:docname="996de1df9070dcec26f939d307a6bdaa.eps"
   xmlns:inkscape="http://www.inkscape.org/namespaces/inkscape"
   xmlns:sodipodi="http://sodipodi.sourceforge.net/DTD/sodipodi-0.dtd"
   xmlns="http://www.w3.org/2000/svg"
   xmlns:svg="http://www.w3.org/2000/svg"><defs
     id="defs6" /><sodipodi:namedview
     id="namedview4"
     pagecolor="#ffffff"
     bordercolor="#666666"
     borderopacity="1.0"
     inkscape:pageshadow="2"
     inkscape:pageopacity="0.0"
     inkscape:pagecheckerboard="0" /><g
     id="g8"
     inkscape:groupmode="layer"
     inkscape:label="ink_ext_XXXXXX"
     transform="matrix(1.3333333,0,0,-1.3333333,0,5333.3381)"><g
       id="g10"
       transform="scale(0.1)"><g
         id="g12"
         transform="scale(2.45399)"><path
           d="M 16300,0 H 0 V 16300 H 16300 V 0"
           style="fill:#ffffff;fill-opacity:1;fill-rule:nonzero;stroke:none"
           id="path14" /></g><g
         id="g16"
         transform="scale(2.04807)"><path
           d="m 16300,9286.61 c 0,-1745.79 -692.6,-3330.21 -1818.1,-4493.02 H 5195.14 C 4069.69,5956.4 3377.09,7540.82 3377.09,9286.61 c 0,3568.49 2892.97,6461.49 6461.45,6461.49 3568.46,0 6461.46,-2893 6461.46,-6461.49"
           style="fill:#0bcbff;fill-opacity:1;fill-rule:nonzero;stroke:none"
           id="path18" /></g><g
         id="g20"
         transform="scale(2.12466)"><path
           d="m 16273.2,4215.59 c -291.7,-44.72 -583.5,-55.45 -875.2,-60.91 -291.8,-6.21 -583.6,-2.91 -875.3,0.47 l -437.6,2.69 -437.6,0.18 H 12772.3 9271.4 5770.52 4020.09 l -437.61,-0.18 -218.81,-2.07 -218.8,-3.58 c -145.87,-1.88 -291.74,1.03 -437.61,8.24 -72.94,4.14 -145.87,9.88 -218.8,18.92 -72.94,8.84 -145.88,19.34 -218.81,36.24 -15.9,3.67 -25.8,19.53 -22.12,35.44 2.63,11.34 11.5,19.67 22.12,22.12 72.93,16.9 145.87,27.39 218.81,36.24 72.93,9.04 145.86,14.78 218.8,18.92 145.87,7.25 291.74,10.12 437.61,8.24 l 218.8,-3.58 218.81,-2.07 437.61,-0.14 h 1750.43 3500.88 3500.9 875.2 l 437.6,0.14 437.6,2.73 c 291.7,3.34 583.5,6.64 875.3,0.42 291.7,-5.46 583.5,-16.19 875.2,-60.9 15.9,-2.4 26.8,-17.27 24.4,-33.18 -2,-12.9 -12.2,-22.5 -24.4,-24.38"
           style="fill:#000072;fill-opacity:1;fill-rule:nonzero;stroke:none"
           id="path22" /></g><g
         id="g24"
         transform="scale(2.05215)"><path
           d="m 9660.61,3947.09 c -3666.84,0 -6639.38,147.89 -6639.38,330.38 0,7.41 4.93,14.77 14.6,22.08 43.52,-0.83 87.05,-1.22 130.58,-1.22 29.85,0 59.73,0.19 89.59,0.58 l 226.53,3.71 226.54,2.14 453.07,0.19 h 1812.29 3624.59 3624.58 906.2 l 453,-0.19 453.1,-2.78 c 178.2,-2.09 356.4,-4.09 534.5,-4.09 123.9,0 247.8,0.97 371.7,3.61 108,1.99 216,4.72 324,9.5 22.4,-11.02 33.9,-22.22 33.9,-33.53 0,-182.49 -2972.5,-330.38 -6639.39,-330.38"
           style="fill:#b2b2d4;fill-opacity:1;fill-rule:nonzero;stroke:none"
           id="path26" /></g><g
         id="g28"
         transform="scale(2.04788)"><path
           d="m 15602.8,4306.84 c -178.5,0 -357,2 -535.6,4.1 l -454,2.78 -454,0.2 H 13251.1 9619 5986.87 4170.81 l -454.02,-0.2 -227.01,-2.15 -227.01,-3.71 c -29.91,-0.39 -59.85,-0.58 -89.77,-0.58 -43.62,0 -87.24,0.39 -130.85,1.22 70.68,53.32 395.18,103.18 913.8,146.64 h 6162.25 c 290.2,-67.1 695.6,-112.8 1262,-112.8 h 4287.5 c 11.1,0 22.1,2.19 32.4,6.44 5.1,2.1 51.6,21.83 117.4,65.68 249.4,-29.54 415.2,-61.28 482.5,-94.49 -108.3,-4.78 -216.5,-7.52 -324.7,-9.52 -124.2,-2.64 -248.3,-3.61 -372.5,-3.61"
           style="fill:#000072;fill-opacity:1;fill-rule:nonzero;stroke:none"
           id="path30" /></g><g
         id="g32"
         transform="scale(2.25449)"><path
           d="m 16184.8,8426.91 c -49.3,-342.38 -158.1,-717.36 -338.2,-1092.93 -99.6,-208.07 -220.9,-416.14 -366.1,-619.03 -183.5,-257.08 -405.3,-505.83 -669.2,-735.28 -53.5,-46.58 -108.6,-92.18 -165.6,-137.06 -201.2,-158.58 -497.8,-90.58 -613,138.43 -35.3,70.26 -48.7,147.04 -41.4,221.65 8.4,87.87 45.2,172.63 108.7,240.14 133.8,141.81 313.9,369 481.6,697.27 106.9,209.05 208.8,459.04 290.3,754.32 78.7,284.24 138.6,610.21 165.8,981.95 9.4,123.44 15,251.99 16.3,385.81 0,0 -8,695.15 654.6,625.24 383,-40.36 591.4,-661.61 476.2,-1460.51"
           style="fill:#726789;fill-opacity:1;fill-rule:nonzero;stroke:none"
           id="path34" /></g><g
         id="g36"
         transform="scale(2.23855)"><path
           d="m 16300,8486.91 c -49.6,-344.82 -159.2,-722.47 -340.5,-1100.71 -182.8,293.63 -435.6,469.99 -769.5,537.72 -74.7,15.27 -146.3,23.14 -212.2,26.71 79.2,286.26 139.6,614.55 167,988.94 61.7,-6.07 126.1,-14.78 191.9,-26.62 365.8,-65.8 689.9,-209.96 963.3,-426.04"
           style="fill:#504563;fill-opacity:1;fill-rule:nonzero;stroke:none"
           id="path38" /></g><g
         id="g40"
         transform="scale(2.14114)"><path
           d="m 16300,7070.44 c -193.2,-270.7 -426.8,-532.62 -704.6,-774.22 -251.2,203.44 -618.1,238.19 -863.4,234.83 8.8,92.52 47.6,181.77 114.4,252.86 140.9,149.31 330.6,388.53 507.1,734.18 374.4,-76.31 694.7,-229.03 946.5,-447.65"
           style="fill:#504563;fill-opacity:1;fill-rule:nonzero;stroke:none"
           id="path42" /></g><g
         id="g44"
         transform="scale(2.23688)"><path
           d="m 14736.7,5950.15 c -0.1,0.23 -0.2,0.5 -0.3,0.72 -34.1,81.68 -69.2,158.43 -105.2,230.68 85.9,-27.54 169.4,-65.23 244.6,-116.19 -44.9,-38.8 -91.2,-77.16 -139.1,-115.21 m 817.2,858.16 c -78.4,63.08 -163.2,119.9 -253.9,170.1 113.1,169.17 210.1,341.19 292.5,513.22 35.1,73.18 67.5,146.36 97.4,219.28 90,-70.41 170.1,-156.07 240.7,-257.24 -94.2,-201.62 -217,-421.25 -376.7,-645.36 m 700.4,1729.01 c -95.9,70.46 -197.7,132.51 -304.9,185.8 54.3,525.73 -34.3,960.89 -220.5,1183.52 4.2,0.09 8.4,0.09 12.6,0.09 27,0 55.1,-1.52 84.1,-4.56 171.8,-18.11 309.7,-178.15 388.4,-450.63 73.7,-255.22 86,-573.65 40.3,-914.22"
           style="fill:#504882;fill-opacity:1;fill-rule:nonzero;stroke:none"
           id="path46" /></g><g
         id="g48"
         transform="scale(2.23061)"><path
           d="m 15975.3,7474.63 c -70.8,101.45 -151,187.34 -241.3,257.95 124.6,305.07 203.9,605.57 244.1,884.73 6.3,43.98 11.7,87.47 16.2,130.33 107.5,-53.44 209.5,-115.66 305.7,-186.32 -31.7,-236.84 -91.5,-484.35 -178,-728.85 -38.8,-109.8 -87,-230.21 -146.7,-357.84"
           style="fill:#383068;fill-opacity:1;fill-rule:nonzero;stroke:none"
           id="path50" /></g><g
         id="g52"
         transform="scale(2.13449)"><path
           d="m 15589.4,6356.32 c -78.8,53.41 -166.3,92.9 -256.3,121.76 -2.2,4.45 -4.4,8.85 -6.6,13.21 244,222.44 452.2,460.58 627.2,705.88 27.6,38.51 54.3,77.16 80.3,116 95,-52.61 183.9,-112.15 266,-178.26 -185.4,-260.11 -418.4,-526.12 -710.6,-778.59"
           style="fill:#383068;fill-opacity:1;fill-rule:nonzero;stroke:none"
           id="path54" /></g><g
         id="g56"
         transform="scale(2.14645)"><path
           d="m 15507,7452.43 c -40.4,11.69 -81.6,22.46 -123.5,32.2 113.3,223.85 220,489.69 305.1,802.01 46.5,-4.42 95.1,-11.18 145,-21.1 -83.4,-290.76 -185.4,-538.65 -292.3,-747.65 -11.4,-22.27 -22.8,-44.07 -34.3,-65.46 m 509.5,1838.99 c -7.2,1.35 -14.4,2.65 -21.7,3.96 -45.6,8.2 -90.4,14.95 -134.3,20.4 9.8,132.32 15.8,269.99 17.4,413.29 -0.1,3.03 -0.3,307.63 187.6,478.13 63.1,57.3 141.6,93.7 234.5,108.8 -266.7,-181.9 -262.5,-569.23 -262.5,-569.23 -1.5,-140.55 -7.2,-275.57 -17.1,-405.22 -1.3,-16.78 -2.6,-33.55 -3.9,-50.13"
           style="fill:#c7c2d0;fill-opacity:1;fill-rule:nonzero;stroke:none"
           id="path58" /></g><g
         id="g60"
         transform="scale(2.10912)"><path
           d="m 16113.9,8411.86 c -50.8,10.1 -100.2,16.98 -147.5,21.48 82.9,304.39 145.7,652.22 174.9,1047.36 44.6,-5.55 90.3,-12.42 136.7,-20.77 7.3,-1.32 14.7,-2.65 22,-4.03 -30.7,-376.27 -92.8,-707.88 -173.3,-998.61 -4.2,-15.27 -8.5,-30.4 -12.8,-45.43"
           style="fill:#b9b5c1;fill-opacity:1;fill-rule:nonzero;stroke:none"
           id="path62" /></g><g
         id="g64"
         transform="scale(2.04203)"><path
           d="m 15813.6,7142.45 c -18.7,28.21 -37.6,55.63 -56.7,82.22 130.9,160.82 276.6,372.72 413.3,642.7 44,-10.24 87.3,-21.55 129.8,-33.84 -170.7,-318.36 -349.3,-544.27 -486.4,-691.08"
           style="fill:#b9b5c1;fill-opacity:1;fill-rule:nonzero;stroke:none"
           id="path66" /></g><g
         id="g68"
         transform="scale(2.2745)"><path
           d="m 13964.9,5956.38 c 46.4,-92.06 130.8,-157.75 231.5,-180.13 99.5,-22.2 202.3,1.15 281.9,63.84 780.4,614.64 1155.4,1340.56 1332.6,1841.24 207.2,585.53 257.7,1188.83 135,1613.89 -77.4,267.97 -213.1,425.37 -382.1,443.17 -170.2,17.94 -305.7,-17.67 -402.8,-105.87 -177.3,-160.87 -177.1,-448.32 -177,-451.17 -17.8,-1599.69 -610.8,-2464.72 -962.7,-2838.07 -97.9,-103.89 -120.5,-259.36 -56.4,-386.9 v 0 m 305.8,-313.12 c -33.7,0 -67.7,3.64 -101.4,11.16 -137.5,30.56 -252.5,120.2 -315.8,245.9 v 0 c -87.7,174.24 -56.7,386.64 77,528.51 339.4,360.13 911.4,1196.62 928.7,2752.56 -0.2,12.58 -1.4,343.72 217.3,542.93 124.6,113.52 293.1,159.95 500.4,138.14 222.9,-23.48 396.5,-212.61 488.9,-532.64 234.2,-811.34 -79.5,-2460.89 -1510.3,-3587.73 -82.2,-64.72 -182.3,-98.83 -284.8,-98.83"
           style="fill:#000072;fill-opacity:1;fill-rule:nonzero;stroke:none"
           id="path70" /></g><g
         id="g72"
         transform="scale(2.04159)"><path
           d="m 16297.3,5436.24 c -25.5,-765.82 -581.4,-995.54 -581.4,-995.54 0,0 -1551,0 -3159.3,0 h -1141.3 c -1920.76,0 -1907.78,524.83 -1907.78,524.83 h -1348.7 c -444.02,293.89 -529.74,711.7 -469.49,1111.39 11.02,72.73 26.7,144.74 45.8,215.27 73.23,268.17 197.39,515.53 302.95,694.55 8.57,14.7 18.12,28.9 28.65,42.37 91.84,122.46 241.72,188.58 393.81,175.36 22.78,-1.96 45.8,-5.83 68.58,-11.51 2898.68,-720.52 4386.98,596.83 4966.68,1333.76 l 0.3,0.53 c 20.8,26.41 40.4,52.12 59,77.1 116.1,156.25 348.7,167.52 473.9,18.37 8.1,-9.8 16.4,-19.35 24.5,-28.65 6.8,-7.84 13.7,-15.43 20.5,-23.03 81.4,-90.37 167.1,-169.23 255.7,-241.23 173.7,-141.06 359.3,-257.15 547.6,-386.22 88.7,-60.73 177.8,-124.16 266.7,-194.7 187.6,-148.41 373.5,-327.19 548.9,-573.32 53.9,-75.68 106.8,-157.72 158.2,-247.11 75.2,-130.29 147.7,-276.01 216.5,-441.08 13.9,-33.31 27.2,-66.37 39.7,-98.7 66.1,-170.94 112.6,-327.93 143,-471.69 16.6,-77.63 28.4,-151.59 36.2,-221.64 10.3,-92.57 13.5,-178.78 10.8,-259.11"
           style="fill:#726789;fill-opacity:1;fill-rule:nonzero;stroke:none"
           id="path74" /></g><g
         id="g76"
         transform="scale(2.04159)"><path
           d="m 16297.3,5436.24 c -25.5,-765.82 -581.4,-995.54 -581.4,-995.54 0,0 -1551,0 -3159.3,0 h -1141.3 c -1920.76,0 -1907.78,524.83 -1907.78,524.83 h -1348.7 c -444.02,293.89 -529.74,711.7 -469.49,1111.39 0,0 866.97,-1128.29 1708.22,-302.95 0,0 -358.1,299.66 -721.88,421.97 -33.26,11.17 -31.11,58.73 2.79,67.79 84.98,22.58 168.74,63.09 154.83,134.01 -25.47,129.56 -526.3,186.62 -766.56,631.37 91.84,122.46 241.72,188.58 393.81,175.36 709.25,-190.54 2002.56,-806.73 2002.56,-806.73 0,0 -1042.96,-602.57 -287.2,-819.94 446.1,-128.33 798.6,-78.42 952.1,-29.39 55.7,17.78 115,20.03 172.1,7.54 350.7,-76.46 1600.4,-294.08 2136.9,346.59 0,0 1622.1,-1116.48 2813.3,14.45 16.6,-77.63 28.4,-151.59 36.2,-221.64 10.3,-92.57 13.5,-178.78 10.8,-259.11"
           style="fill:#ffffff;fill-opacity:1;fill-rule:nonzero;stroke:none"
           id="path78" /></g><g
         id="g80"
         transform="scale(1.16688)"><path
           d="m 16300,10188.8 c 0,0 -522.9,92.3 -1017.2,-48.1 -33.3,-9.5 -54.1,34.3 -25.7,54.1 153.1,106.1 430.7,248.4 793.9,222.1 l 249,-228.1"
           style="fill:#504563;fill-opacity:1;fill-rule:nonzero;stroke:none"
           id="path82" /></g><g
         id="g84"
         transform="scale(1.12177)"><path
           d="m 16300,11024.6 c 0,0 -485.8,85.8 -937.3,-49.3 -25.4,-7.6 -42,26.6 -20.7,42.1 133.7,96.5 391.5,237.5 733.5,212.7 l 224.5,-205.5"
           style="fill:#504563;fill-opacity:1;fill-rule:nonzero;stroke:none"
           id="path86" /></g><g
         id="g88"
         transform="scale(1.32793)"><path
           d="m 15215.5,9358.08 c 0,0 622.1,-60.17 1041.7,-410.49 17.6,-14.68 42.8,4.97 31.9,25.15 -85,157.39 -298.4,469.61 -713.1,625.64 l -360.5,-240.3"
           style="fill:#504563;fill-opacity:1;fill-rule:nonzero;stroke:none"
           id="path90" /></g><g
         id="g92"
         transform="scale(1.79482)"><path
           d="m 16300,9475.12 c -13.1,-18.94 -26.2,-37.61 -39.8,-56.27 -96.1,-132.33 -200.3,-258.52 -319,-371.35 -116.5,-114.49 -246.3,-216.18 -388.1,-300.03 -7.5,-4.46 -17.2,-2.23 -21.7,5.29 -2.5,4.46 -2.8,9.48 -1.1,13.66 l 0.3,0.83 c 14.7,39 31.2,76.05 47.6,112.83 16.7,36.49 34.3,71.59 49.6,108.64 l 98.3,212.84 c 66,140.18 128.7,278.86 190.6,416.2 23.7,52.65 46.8,105.3 69.1,157.95 99.4,-113.94 204.7,-211.72 314.2,-300.59"
           style="fill:#504563;fill-opacity:1;fill-rule:nonzero;stroke:none"
           id="path94" /></g><g
         id="g96"
         transform="scale(1.89681)"><path
           d="m 16300,8340.37 c -71.2,-91.2 -147.4,-177.93 -231.2,-257.53 -110.2,-108.08 -233,-204.56 -367.2,-283.9 -7.1,-4.22 -16.3,-1.85 -20.5,5.27 -2.4,3.95 -2.7,8.7 -1.1,12.92 l 0.3,0.79 c 13.9,36.9 29.5,71.7 45.1,106.49 15.8,34.53 32.4,68.01 46.9,102.81 l 93.3,201.65 c 50.6,107.81 99.4,214.83 147.3,321.07 95.5,-65.38 191.4,-133.65 287.1,-209.57"
           style="fill:#504563;fill-opacity:1;fill-rule:nonzero;stroke:none"
           id="path98" /></g><g
         id="g100"
         transform="scale(1.98537)"><path
           d="m 16300,7124.67 c -13.1,-13.09 -26.2,-26.19 -39.8,-39.03 -105.3,-103.26 -222.4,-195.18 -350.8,-271.24 -6.8,-4.02 -15.6,-1.76 -19.7,5.04 -2.2,3.78 -2.5,8.31 -1,12.34 l 0.3,0.76 c 13.6,35.26 28.5,68.5 43.1,101.74 15.1,32.99 31.2,64.98 45,98.22 l 88.9,192.66 c 24.2,51.38 47.9,102.5 71.3,153.62 55.4,-77.82 109.8,-162.18 162.7,-254.11"
           style="fill:#504563;fill-opacity:1;fill-rule:nonzero;stroke:none"
           id="path102" /></g><g
         id="g104"
         transform="scale(1.38255)"><path
           d="m 15258.4,9441.79 c 0,0 597.4,-57.8 1000.5,-394.28 16.9,-14.1 41.1,4.77 30.6,24.16 -81.6,151.1 -286.6,450.98 -684.9,600.85 l -346.2,-230.73"
           style="fill:#504563;fill-opacity:1;fill-rule:nonzero;stroke:none"
           id="path106" /></g><g
         id="g108"
         transform="scale(1.17706)"><path
           d="m 16264.7,9981.01 c -64,77.69 -130.5,148.19 -198.2,212.19 144.6,-103.9 233.5,-178.3 233.5,-178.3 -11.7,-11.5 -23.5,-22.76 -35.3,-33.89 m -1210.4,883.79 c 10.2,20 28.8,36.1 55.6,42.1 5.2,1.1 10.3,2.3 15.5,3.4 142.4,31.1 185.4,194.9 108,294.3 49,-34.9 80.4,-69.5 87.9,-107.8 24,-122.5 -120.1,-192.7 -267,-232 m -948.2,1145.9 c -11.1,14.7 -21.5,29.3 -31.1,43.5 0.1,0 0.2,0.1 0.2,0.2 10.1,-14.9 20.4,-29.5 30.9,-43.7"
           style="fill:#504882;fill-opacity:1;fill-rule:nonzero;stroke:none"
           id="path110" /></g><g
         id="g112"
         transform="scale(1.25817)"><path
           d="m 15400.5,9078.62 c -57.8,94.57 -119.8,180.65 -184.3,258.94 11,10.41 22,20.99 33,31.72 0,0 -83.2,69.62 -218.5,166.82 -212.5,200.93 -438.3,333.51 -636.8,420.62 l -61.1,55.98 c -24,1.7 -47.5,2.6 -70.5,2.6 -5,0 -9.9,-0.1 -14.7,-0.2 -41.1,14.8 -80.3,27.6 -117,38.7 -51.9,15.5 -66.9,71.1 -46.8,110.6 137.5,36.7 272.3,102.4 249.8,217.1 -7,35.7 -36.4,68.1 -82.2,100.7 -16.4,21.1 -38.6,39.1 -66.7,51.8 -559.2,252.9 -843.5,508.7 -988,702.4 -9.8,13.3 -19.4,27 -28.9,40.9 1.3,2.1 2.6,4.2 3.9,6.2 1054.7,-800.4 2155.8,-1079.4 3128.3,-1111.4 l -49.2,-32.8 c -84.2,-52.1 -160.2,-116.5 -237.8,-177.97 -149.4,-130.91 -285,-278.9 -395.8,-445.25 l -41.4,-62.55 -37.1,-65.18 c -25.8,-42.92 -47,-88.54 -68.9,-133.77 -11.5,-22.25 -19.8,-46.33 -29.9,-69.46 -9.8,-23.13 -19.1,-46.66 -27.1,-70.98 -4.2,-11.76 -8.3,-23.53 -12.3,-35.52"
           style="fill:#b2b2d4;fill-opacity:1;fill-rule:nonzero;stroke:none"
           id="path114" /></g><g
         id="g116"
         transform="scale(1.11104)"><path
           d="m 16300,11275.2 c -57.5,25.3 -113,47.2 -165.7,66.2 5.5,0.1 11.1,0.2 16.6,0.2 26.2,0 52.8,-1 79.9,-3 l 69.2,-63.4"
           style="fill:#383068;fill-opacity:1;fill-rule:nonzero;stroke:none"
           id="path118" /></g><g
         id="g120"
         transform="scale(1.7748)"><path
           d="m 12548,7266.1 c -6.6,7.38 -13.4,14.76 -20.5,22.14 23.2,4.4 46.2,8.9 68.9,13.52 886.4,180.08 1526.1,556.29 1650.1,632.92 777.3,67.78 1463.1,709.49 1804.7,1088.63 32.4,35.89 55.2,78.43 67.4,123.9 0.8,0.79 1.5,1.58 2.3,2.31 49.6,47.16 96.7,96.63 141.7,147.85 7,-19.44 13.7,-36.85 19.8,-51.84 17.6,-43.78 17.4,-92.74 -0.7,-136.41 C 15873.6,8123.6 14269.2,7758.38 14269.2,7758.38 13683.1,7396.93 13027.5,7288.92 12548,7266.1 m 3438.2,2217.43 c -85.8,54.65 -156.1,116.01 -207,166.21 106.8,54.04 190.1,141.54 254,236.14 10.6,-8.96 20.6,-18.87 29.7,-29.75 19.9,-23.72 40,-46.76 60.3,-69.13 -8.9,-20.29 -17.9,-40.51 -27.1,-60.8 -36.2,-80.4 -72.7,-161.31 -109.9,-242.67"
           style="fill:#504882;fill-opacity:1;fill-rule:nonzero;stroke:none"
           id="path122" /></g><g
         id="g124"
         transform="scale(1.77074)"><path
           d="m 16155.6,9168.22 c 10.3,38.4 13,78.89 7.5,119.27 -12.2,89.51 -63,168.69 -139.5,217.37 -0.3,0.17 -0.5,0.28 -0.7,0.45 37.3,81.55 73.9,162.65 110.2,243.23 9.2,20.34 18.2,40.61 27.1,60.94 19.1,-21.01 38.2,-41.4 57.6,-61.33 1,-169.14 45.6,-327.66 82.2,-429.43 -45.1,-51.33 -92.3,-100.92 -142,-148.18 -0.8,-0.74 -1.6,-1.53 -2.4,-2.32"
           style="fill:#383068;fill-opacity:1;fill-rule:nonzero;stroke:none"
           id="path126" /></g><g
         id="g128"
         transform="scale(1.36628)"><path
           d="m 16067,9432.35 c 70.4,10.76 139.2,22.55 206.3,35.14 9.2,-9.59 18.1,-19.18 26.7,-28.77 -81.9,-3.88 -159.8,-5.85 -233,-6.37"
           style="fill:#383068;fill-opacity:1;fill-rule:nonzero;stroke:none"
           id="path130" /></g><g
         id="g132"
         transform="scale(2.02626)"><path
           d="m 12863.7,5562.9 c 61.2,27.19 121.4,57.69 180,91.89 123.1,71.81 207.5,193.96 239.9,332.63 79.9,343.4 377.3,1040.69 1473,1040.69 74.3,0 152.2,-3.21 234,-9.97 -3.5,0.1 -9.7,0.25 -18.4,0.25 -36.4,0 -116.1,-2.37 -221.2,-19.5 -292,-44.37 -777.4,-189.66 -1027.9,-663.19 -70.9,-110.6 -133.8,-239.26 -184.4,-388.5 v 0 c -170.5,-203.57 -412.4,-321.13 -675,-384.3 m 3220.3,171.05 c 69.7,133.75 117.6,289.2 136.7,469.98 34.7,-109.46 60.8,-212.21 79.3,-308.45 -70.8,-61.05 -142.9,-114.69 -216,-161.53 m -8165.78,203.97 c -37.81,36.23 -70.08,69.79 -96.04,98.07 3.95,40.46 9.62,80.88 16.83,121.15 17.37,-63.81 42.69,-139.56 79.21,-219.22"
           style="fill:#504882;fill-opacity:1;fill-rule:nonzero;stroke:none"
           id="path134" /></g><g
         id="g136"
         transform="scale(2.04934)"><path
           d="m 15638.3,4508.52 h -4266.2 c -63.8,0 -125.4,0.58 -184.8,1.7 46.1,41.48 75,101.6 75,168.45 0,125.21 -101.5,226.71 -226.7,226.71 H 9574.24 c -12.79,21.37 -16.64,36.3 -17.67,41.57 2.44,23.13 -5.32,42.31 -20.83,60.02 -16.11,18.4 -39.68,24.35 -64.07,24.35 H 8153.98 c -118.63,81.93 -208.27,174.1 -273.94,273.06 l -117.46,260.18 c -35.37,130.63 -41.86,267.11 -28.49,403.45 25.66,-27.96 57.58,-61.14 94.95,-96.96 133.61,-291.26 419.31,-635.72 1023.5,-635.72 185.33,0 400.47,32.41 650.5,108.63 0,0 202.12,-142.64 717.76,-142.64 228,0 517.2,27.87 877.4,108.23 29.1,6.54 58.7,9.71 88.3,9.71 17,0 34,-1.07 51,-3.12 77.9,-9.22 216.7,-21.91 389.9,-21.91 304.7,0 716.2,39.28 1091.5,206.02 259.5,62.46 498.7,178.69 667.3,379.98 v 0 c -8.2,-24.31 -16.1,-49.19 -23.6,-74.62 -110.6,-318.19 -50.7,-404.86 -50.7,-404.86 l 61.1,11.03 c -121.2,-26.79 -244.1,-69.83 -357.9,-136.87 -81.9,-48.31 -82.9,-167.86 -1.9,-217.88 159.6,-98.52 444.3,-228.26 837.5,-228.26 33.2,0 66.9,0.92 101.6,2.83 497.7,28.1 1563.6,94.95 1950.6,837.78 72.2,46.3 143.6,99.35 213.5,159.71 183.6,-954.02 -377.4,-1271.83 -478.1,-1320.57 m -1514,908.87 c -9.3,1.91 -162.2,33.62 -370.6,33.62 -81.4,0 -171.3,-4.88 -264.4,-18.2 0,2.98 0.2,104.33 34.2,254.86 134.4,-31.03 338,-103.35 600.8,-270.28"
           style="fill:#b2b2d4;fill-opacity:1;fill-rule:nonzero;stroke:none"
           id="path138" /></g><g
         id="g140"
         transform="scale(1.69597)"><path
           d="m 16159.4,6539.39 c 47.2,10.43 94.2,18.81 140.6,25.41 v -0.06 l -140.6,-25.35"
           style="fill:#ffffff;fill-opacity:1;fill-rule:nonzero;stroke:none"
           id="path142" /></g><g
         id="g144"
         transform="scale(1.8635)"><path
           d="m 14899.1,6359.01 c -98.4,54.95 -160,95.68 -174.5,105.45 44.8,115.75 107.9,255.27 196.2,422.81 0.3,0.59 0.7,1.23 1,1.82 328.9,513.12 818.2,672.29 1117.7,721.12 126.7,19.26 219.9,21.03 250,21.03 6.9,0 10.5,-0.1 10.5,-0.1 -948,-248.08 -1282.7,-865.15 -1400.9,-1272.13"
           style="fill:#b9b3c4;fill-opacity:1;fill-rule:nonzero;stroke:none"
           id="path146" /></g><g
         id="g148"
         transform="scale(1.70334)"><path
           d="m 16270.6,6843.01 c -103.6,23.9 -172.9,27.42 -204.8,27.42 -13.5,0 -20.3,-0.65 -20.3,-0.65 9.8,39.46 20.3,77.73 31.4,115.13 9.6,27.65 20.3,56.71 32.1,87.36 15.9,-10.69 83.3,-55.25 191,-115.36 -11.6,-39.99 -21.3,-78.09 -29.4,-113.9"
           style="fill:#ffffff;fill-opacity:1;fill-rule:nonzero;stroke:none"
           id="path150" /></g><g
         id="g152"
         transform="scale(1.70027)"><path
           d="m 16044.9,6509.56 c 0,0 -72.2,104.45 61.1,487.98 -11.2,-37.47 -21.7,-75.81 -31.5,-115.34 0,0 6.8,0.65 20.3,0.65 32,0 101.5,-3.53 205.2,-27.47 -41.1,-181.44 -41.2,-303.6 -41.2,-307.18 -46.3,-6.59 -93.2,-14.94 -140.3,-25.35 l -73.6,-13.29"
           style="fill:#d9d9ea;fill-opacity:1;fill-rule:nonzero;stroke:none"
           id="path154" /></g><g
         id="g156"
         transform="scale(1.83371)"><path
           d="m 15164.2,7000.99 c 276.7,523.26 813.1,683.81 1135.8,732.83 -304.4,-49.62 -801.5,-211.37 -1135.8,-732.83"
           style="fill:#a8a4c1;fill-opacity:1;fill-rule:nonzero;stroke:none"
           id="path158" /></g><g
         id="g160"
         transform="scale(1.20529)"><path
           d="m 15760.7,8550.78 c -0.9,0.49 -3.2,1.07 -3.2,1.07 l 1.7,-0.08 c 1.2,-0.08 2,-0.58 4.1,-0.58 3.8,-0.08 7,-1.33 11.2,-0.91 8,-0.75 16.2,-0.42 24.5,0.33 8.4,0.08 16.1,3.32 24.5,3.82 7.7,3.48 15.7,5.22 23.6,8.54 31,12.86 60.7,40.16 86.5,78.66 53,76.41 84.6,190.24 100.4,306.14 3.3,29.54 9,58.41 10.6,88.61 l 4.9,90.93 c 0.6,14.85 2.3,31.03 2,44.81 l -1.1,40.73 c 0.9,27.47 -5.8,54.1 -8.3,81.31 -17.3,108.03 -63.2,212.98 -126.3,310.55 -129.9,194.06 -320.8,359.83 -530.1,495.59 -209.4,137.9 -432.8,259.7 -661.9,381.2 l -0.3,0.2 c -4.9,2.5 -6.7,8.6 -4.1,13.4 2,3.8 6.1,5.8 10.2,5.2 130.4,-18.4 256.9,-53.4 380.7,-96.8 62.3,-21 122.7,-46.6 183.6,-72.2 59.7,-27.6 119.6,-55.6 177.7,-87.5 116.2,-63.6 229.1,-135.5 335.7,-219 106.3,-83.58 207.8,-178.24 290.4,-293.15 82.7,-113.83 151.1,-245.92 181.7,-391.52 5.6,-36.59 14.9,-72.93 16,-110.19 l 3.7,-55.67 c 0.9,-18.33 -0.1,-34.35 -0.1,-51.68 l -1.5,-102.14 c -0.6,-34.01 -5.4,-69.03 -8,-103.54 -15.3,-137.89 -39.8,-282.92 -125.7,-425.04 -19.2,-35.6 -49.5,-68.95 -78.7,-101.31 -17,-15.18 -34.3,-30.03 -52,-44.55 -18.8,-13.44 -39.7,-25.22 -59.8,-37.17 -21.1,-10.62 -43.7,-19.08 -65.9,-27.71 -23.1,-5.89 -46.1,-13.28 -69.9,-16.1 -23.6,-3.64 -47.5,-5.55 -71.7,-5.05 -11.9,-0.34 -24.7,1.49 -36.9,2.4 -5.9,0.42 -13.1,1.58 -19.8,2.74 l -10.2,1.99 -15,3.65 c -77.3,21.24 -122.8,101.14 -101.7,178.46 21.3,77.33 101.2,122.79 178.5,101.56"
           style="fill:#000072;fill-opacity:1;fill-rule:nonzero;stroke:none"
           id="path162" /></g><g
         id="g164"
         transform="scale(1.6807)"><path
           d="m 12236.1,5868.63 c -677.8,0 -803.5,170.05 -826,243.11 l 198.9,61.4 c -3.6,11.84 -7.5,16.96 -7.5,17.02 0.8,-1.13 93.6,-113.28 634.6,-113.28 657.2,0 1373.1,120 1380.3,121.25 8.8,1.49 17.9,1.85 26.8,1.01 16.5,-1.48 1650.5,-139.28 2513.5,678.29 l 143.3,-151.18 c -898.5,-851.2 -2485.8,-749.81 -2662,-735.65 -104.5,-17.19 -768.6,-121.97 -1401.9,-121.97"
           style="fill:#000072;fill-opacity:1;fill-rule:nonzero;stroke:none"
           id="path166" /></g><g
         id="g168"
         transform="scale(1.32211)"><path
           d="m 14625.6,8527.27 c 3.1,16.57 6.2,27.54 9.2,40.32 2.9,12.86 6.6,24.13 10,36.08 6.5,24.05 14.5,46.89 22.6,69.66 7.5,23.14 16.4,45.53 25.8,67.54 9.5,22.01 17.4,44.93 28.4,66.11 20.8,43.04 41,86.45 65.5,127.3 l 35.4,62.02 39.3,59.52 c 105.5,158.31 234.5,299.15 376.7,423.72 73.9,58.54 146.2,119.81 226.3,169.35 l 58.8,39.18 c 19.4,13.46 39.2,26.02 60,36.76 l 123.3,68.07 c 40.5,24.06 83.5,42.13 126.1,61.35 l 128.1,57.4 c 86.9,33.51 175.1,63.08 262.9,94.65 l 76,-253.56 c -81.2,-27.3 -163.5,-52.57 -244.2,-81.38 l -118.2,-49.7 c -39.5,-16.56 -79.5,-32.07 -116.5,-53.09 l -113.3,-59 c -19.2,-9.23 -37.4,-20.2 -55.1,-31.92 l -53.7,-34.04 c -73.7,-42.81 -139.1,-96.36 -207,-147.03 -129.5,-108.24 -247.1,-230.62 -343.6,-368.05 l -36,-51.59 -32.4,-53.78 c -22.6,-35.39 -40.9,-72.83 -60,-109.89 -10.2,-18.31 -17.2,-37.75 -26,-56.58 -8.6,-18.91 -16.8,-37.97 -23.5,-57.26 -7.4,-19.21 -14.6,-38.42 -20.3,-57.48 -3,-9.53 -6.5,-19.36 -8.7,-28.36 l -6.5,-24.96 -209.4,38.64"
           style="fill:#000072;fill-opacity:1;fill-rule:nonzero;stroke:none"
           id="path170" /></g><g
         id="g172"
         transform="scale(1.86393)"><path
           d="m 16300,7628.87 c -111.2,-14.22 -219.4,-37.61 -324.7,-67.44 -105.4,-29.93 -207.9,-66.42 -305.6,-111.43 -195.5,-89 -374.1,-210.25 -514.4,-366.86 -71,-77.2 -134.6,-161.22 -186,-252.74 l -20.3,-33.69 -17.9,-35.09 c -11.7,-23.5 -24.7,-46.3 -35.4,-70.28 -20.4,-48.66 -42.9,-96.14 -59.2,-146.58 -8.7,-24.94 -18.5,-49.46 -26.4,-74.73 l -21.8,-76.45 -11,-38.25 -8.9,-38.9 -18,-77.85 c -11.1,-52.14 -18.2,-105.37 -27.5,-158.05 l -19.2,-160.14 -0.8,-6.07 c -4.1,-35.03 -27.9,-62.98 -58.8,-74.46 v 0 c -22.5,-9.07 -50.2,-21.84 -75.1,-34.02 -25.6,-12.5 -50.8,-25.91 -75.9,-39.64 -50.1,-27.8 -98.9,-58 -145.9,-90.3 -94.3,-64.48 -181,-138.74 -256.3,-221.41 -74.5,-83.16 -137.1,-175.38 -179,-275.44 -42.9,-99.68 -63.4,-206.87 -64.5,-315.09 v -1.55 c -0.5,-51.83 -42.9,-93.46 -94.8,-92.98 -51.8,0.49 -93.4,42.65 -92.9,94.53 0.9,132.57 26.7,266.43 79.3,388.27 51.3,122.43 126.4,231.98 212.5,328.07 86.9,95.5 184.7,178.76 289.3,250.33 52.2,35.84 106,69.15 161.3,99.79 27.7,15.24 55.7,30.04 84.3,43.99 29.1,14.17 56.1,26.93 89.5,40.4 l 0.1,0.05 -59.6,-80.47 c 13.1,228.82 56.4,459.19 139.5,677.81 82.1,218.41 210.2,423.46 378.4,588.17 84.1,82.14 177.1,154.67 276.7,215.56 99.6,60.68 206,108.91 315.3,145.34 109.4,36.43 222.1,59.88 335.2,71.89 56.6,6.12 113.3,9.18 169.9,8.59 56.5,-0.32 113.1,-3.76 168.6,-12.88"
           style="fill:#000072;fill-opacity:1;fill-rule:nonzero;stroke:none"
           id="path174" /></g><g
         id="g176"
         transform="scale(1.77764)"><path
           d="m 15277.1,6304.04 c 15.3,6.81 24.5,10.18 36.1,14.4 11.1,4.28 21.9,7.15 32.8,10.69 21.8,6.24 43.3,12.43 64.8,17.1 21.5,5.34 43.2,9.23 64.7,12.71 21.6,4.11 43.2,6.47 64.7,9.01 86.3,9.73 172.4,10.63 257.4,5.56 42.4,-3.37 84.7,-6.47 126.5,-13.5 42,-4.95 83.2,-14.34 124.3,-22.89 41.1,-8.72 81.3,-21.44 121.4,-32.8 39.6,-13.39 78.9,-27.73 117.5,-43.03 8.5,-3.38 12.7,-13.05 9.3,-21.61 -2.6,-6.58 -8.9,-10.57 -15.6,-10.46 h -1 c -41.4,0.51 -81.9,3.55 -122.4,4.67 -40.7,-0.17 -80.7,2.81 -120.9,1.63 -80,0.62 -159.3,-3.49 -237.4,-9.79 -78.1,-7.98 -155.1,-19.01 -229.8,-35.66 -37.3,-8.5 -74.3,-17.55 -109.9,-28.64 -18.2,-5 -35.5,-11.19 -52.6,-17.21 l -24.9,-9.56 c -7.6,-2.82 -17.3,-6.92 -20.6,-8.5 l -2.5,-1.12 c -49.1,-23.18 -107.8,-2.03 -130.9,47.14 -23.2,49.22 -2.1,107.84 47.1,131.02 l 1.9,0.84"
           style="fill:#000072;fill-opacity:1;fill-rule:nonzero;stroke:none"
           id="path178" /></g><g
         id="g180"
         transform="scale(1.63749)"><path
           d="m 16035.2,5523.57 c -3.8,27 -3.4,45.87 -2.5,68.46 1.2,21.74 3.6,43.3 7.9,64.8 8.6,42.87 21.4,85.68 43.5,126.17 20.7,40.61 50,78.84 87.8,106.8 39,27.18 85.1,41.53 128.1,36.1 -25.3,-36.58 -40.2,-67.67 -48.7,-98.88 -8,-31.45 -10.7,-61.92 -12.9,-92.39 -1.2,-30.84 0.2,-62.48 2.4,-94.11 l 3.6,-47.39 c 0.3,-7.88 1.6,-15.57 1.7,-23.33 0.7,-7.14 1.3,-16.42 1.3,-20.27 l -212.2,-25.96"
           style="fill:#000072;fill-opacity:1;fill-rule:nonzero;stroke:none"
           id="path182" /></g><g
         id="g184"
         transform="scale(1.69285)"><path
           d="m 16024.2,5330.73 c -6.6,15.83 -8.6,25.34 -10.9,37.74 -1.5,11.58 -2.4,23.34 -1.7,34.97 1,23.4 5.7,46.55 10.6,69.35 10.5,45.61 27.3,90.44 51.7,130.97 24.2,40.64 59.6,74.66 97.2,98.53 37.5,25.1 80.5,35.32 119.8,41.35 l 9.1,-23.04 c -28.8,-25.34 -54.6,-49.62 -69.6,-79.57 -16.2,-28.47 -25.2,-57.89 -26.9,-88.25 -2.8,-29.83 -0.3,-59.96 6.2,-89.62 3,-14.82 8,-29.47 12,-43.65 1.7,-7.21 3.4,-14.18 4.2,-21.26 0.5,-6.27 1.4,-15.36 -1,-17.9 l -200.7,-49.62"
           style="fill:#000072;fill-opacity:1;fill-rule:nonzero;stroke:none"
           id="path186" /></g><g
         id="g188"
         transform="scale(1.30258)"><path
           d="m 15966.3,7691.49 c -7.5,40.53 -8.5,71.09 -8.9,106.17 0.2,34.01 1.9,67.87 6.9,101.65 8.6,67.48 26.2,134.42 52.2,198.6 27.1,64.1 64.2,124.91 111.6,175.8 48.4,50.52 108.8,88.14 171.9,105.26 -31.5,-58.96 -52.7,-112.62 -66.1,-166.82 -11.9,-54.97 -17.9,-108.25 -20.2,-161.83 -2,-53.82 1,-107.79 4.4,-161.3 l 13.5,-155.15 -265.3,-42.38"
           style="fill:#000072;fill-opacity:1;fill-rule:nonzero;stroke:none"
           id="path190" /></g><g
         id="g192"
         transform="scale(1.25353)"><path
           d="m 15942.9,8000.98 c -7.8,46.75 -9.5,84.32 -9.9,126.04 -0.7,20.43 0.3,40.77 1.4,61.11 0.7,20.26 2.1,40.61 4.8,60.87 4,40.45 10.4,80.89 19.6,120.94 4.7,20.02 8.8,39.97 14.2,59.91 l 18.7,59.03 c 26.4,78.42 64.8,153.97 114.8,220.82 52.9,65.41 118,121.49 193.5,151.01 -31.5,-75.71 -53.1,-143.2 -67.1,-211.88 -13.2,-69 -19.6,-136.89 -24.9,-204.78 -2.8,-68.53 -2.2,-137.05 0.5,-205.5 1.4,-34.23 3,-68.53 5.3,-102.51 l 5.8,-97.8 -276.7,-37.26"
           style="fill:#000072;fill-opacity:1;fill-rule:nonzero;stroke:none"
           id="path194" /></g><g
         id="g196"
         transform="scale(1.09253)"><path
           d="m 15983.1,9309.88 c 0.1,-1.83 1.2,1.65 2.1,3.57 0.8,1.92 1.8,4.85 2.7,7.51 l 5.6,17.11 c 3.9,11.63 6.9,24.53 10.3,37.07 5.4,25.81 12.1,52.26 16.1,79.54 4.8,27.28 7.2,55.01 9.6,83.29 2.8,28.29 4.1,56.94 4.1,85.95 -0.7,57.85 -5.3,117.07 -14.2,177.39 -7.6,60.96 -20.5,122.29 -32.5,188.65 52.2,-40.92 100.5,-89.07 139.2,-144.44 40.9,-54.46 71.1,-115.97 98.6,-179.86 27.9,-63.98 47.6,-131.99 60.2,-202.47 6.6,-35.23 11.5,-71.3 13.5,-108 0.6,-18.58 1.6,-36.89 1.1,-56.2 0,-9.43 -0.1,-19.22 -1,-29.38 l -1.3,-15.56 c -0.7,-5.68 -0.9,-9.98 -2.7,-19.41 l -311.4,75.24"
           style="fill:#000072;fill-opacity:1;fill-rule:nonzero;stroke:none"
           id="path198" /></g><g
         id="g200"
         transform="scale(1.15037)"><path
           d="m 15997.8,8842.51 c 7.3,21.04 16.5,50.25 23.8,76.33 7.4,26.94 15.5,54.15 22.5,81.62 7.4,27.47 13.5,55.2 19.3,83.02 6.7,27.9 12.1,55.81 17.3,84.15 9.4,56.32 14.8,113.17 18.2,171.25 2.4,57.89 2.8,116.91 -3.2,181.33 47.4,-43.47 84.1,-99.71 111.5,-159.17 27.1,-59.8 44.2,-122.83 59.1,-186.46 14.7,-63.63 23.8,-128.13 28.7,-192.98 2.7,-32.42 4.8,-65.02 4.7,-97.71 0,-33.47 0.3,-63.72 -3.7,-101.7 l -298.2,60.32"
           style="fill:#000072;fill-opacity:1;fill-rule:nonzero;stroke:none"
           id="path202" /></g><g
         id="g204"
         transform="scale(2.0776)"><path
           d="m 9426.59,4879.67 c 6.26,-32.2 119.56,-432.47 1790.91,-432.47 h 4208.1 c 117.9,57.08 874.4,487.43 286.5,1895.6 -365.8,876.25 -829.6,1187.09 -1278.1,1487.67 -255.8,171.4 -497.3,333.37 -712.2,589.19 -41,48.86 -101.3,75.42 -166,73.89 -67,-2.03 -128.5,-34.08 -168.7,-88.04 -282.8,-380.24 -788.6,-907.39 -1592.3,-1259.38 -978.5,-428.53 -2133.75,-482 -3433.62,-158.94 -151.14,37.59 -311.75,-29.74 -390.5,-163.79 -283.83,-482.87 -648.48,-1362.53 72.39,-1860.51 h 1299.77 c 24.07,0 47.32,-5.87 63.2,-24.02 15.31,-17.47 22.96,-36.39 20.55,-59.2 m 6017.01,-599.44 h -4226.1 c -1216.1,0 -1679.86,213.85 -1854.78,393.19 -44.23,45.34 -69.6,87.74 -84.14,122.54 H 8017.52 c -16.42,0 -32.45,4.82 -46.11,13.87 -384.82,254.76 -555.74,623.12 -507.99,1094.96 38.89,384.43 219.05,757.75 363.3,1003.23 116,197.34 352.28,296.59 574.75,241.24 2927.53,-727.72 4368.13,705.81 4851.73,1355.89 70.8,95.2 179.3,151.76 297.7,155.27 115.7,2.74 224.7,-45.2 298.8,-133.37 199.6,-237.73 431.6,-393.25 677.2,-557.86 447.2,-299.72 954.1,-639.44 1339.3,-1562.09 258,-618.02 302.7,-1140.06 132.7,-1551.6 -173.7,-420.43 -509.2,-563.05 -523.4,-568.92 -10.1,-4.19 -20.9,-6.35 -31.9,-6.35"
           style="fill:#000072;fill-opacity:1;fill-rule:nonzero;stroke:none"
           id="path206" /></g><g
         id="g208"
         transform="scale(1.02881)"><path
           d="M 16055.4,9771.1 H 6772.87 l -1362.74,3018.5 -1138.2,2520.9 c -209.47,464.1 130.24,989.5 639.08,989.5 h 7405.69 c 481.6,0 919,-282.4 1116.8,-721.2 l 1846.8,-4090.2 775.1,-1717.5"
           style="fill:#d0cfe5;fill-opacity:1;fill-rule:nonzero;stroke:none"
           id="path210" /></g><path
         d="M 7026.18,10052.6 H 6968 l -1402,3105.5 c 1174.74,-1159.9 3457.62,-1986.3 6104.3,-1986.3 1134,0 2334.7,151.6 3544.1,493.6 l 156.1,-345.8 571.7,-1266.8 H 7039.61 c -4.5,0 -8.96,0 -13.43,-0.2"
         style="fill:#9190c2;fill-opacity:1;fill-rule:nonzero;stroke:none"
         id="path212" /><g
         id="g214"
         transform="scale(1.02881)"><path
           d="m 4881.69,16299.4 c 0.07,0 0.09,0 0.15,0 -0.06,0 -0.09,0 -0.15,0 m 1.94,0.1 c 0.12,0 0.2,0 0.31,0 -0.12,0 -0.18,0 -0.31,0 m 4.14,0.2 c 0.13,0 0.31,0 0.43,0 -0.15,0 -0.28,0 -0.43,0 m 2.18,0 c 0.07,0 0.08,0 0.15,0 -0.03,0 -0.12,0 -0.15,0 m 2.04,0.1 c 0.13,0 0.32,0 0.45,0 -0.16,0 -0.29,0 -0.45,0 m 2.01,0 c 0.13,0 0.23,0 0.35,0 -0.11,0 -0.22,0 -0.35,0 m 2.29,0.1 c 0.07,0 0.09,0 0.16,0 -0.05,0 -0.09,0 -0.16,0 m 1.88,0 c 0.18,0 0.31,0 0.49,0 -0.16,0 -0.33,0 -0.49,0 m 2.21,0.1 c 0.04,0 0.13,0 0.17,0 -0.03,0 -0.14,0 -0.17,0 m 2.06,0 c 0.16,0 0.27,0 0.43,0 -0.13,0 -0.3,0 -0.43,0 m 1.99,0 c 0.14,0 0.28,0 0.41,0 -0.15,0 -0.25,0 -0.41,0 m 2.28,0 c 0.14,0 0.24,0 0.37,0 -0.13,0 -0.25,0 -0.37,0 m 1.91,0 c 0.16,0 0.37,0 0.52,0 -0.19,0 -0.33,0 -0.52,0"
           style="fill:#ffffff;fill-opacity:1;fill-rule:nonzero;stroke:none"
           id="path216" /></g><g
         id="g218"
         transform="scale(1.02881)"><path
           d="m 14788.3,11338.7 -1695,3754.1 c -197.8,438.8 -635.2,721.2 -1116.8,721.2 H 4570.82 c -130.07,0 -248.98,-34.4 -350.6,-93.3 55.29,308.6 316.64,564.9 661.47,578.7 0.06,0 0.09,0 0.15,0 0.59,0.1 1.21,0.1 1.79,0.1 0.13,0 0.19,0 0.31,0 1.28,0.1 2.54,0.1 3.83,0.2 0.15,0 0.28,0 0.43,0 0.58,0 1.17,0 1.75,0 0.03,0 0.12,0 0.15,0 0.63,0.1 1.26,0.1 1.89,0.1 0.16,0 0.29,0 0.45,0 0.52,0 1.04,0 1.56,0 0.13,0 0.24,0 0.35,0 0.64,0.1 1.31,0.1 1.94,0.1 0.07,0 0.11,0 0.16,0 0.57,0 1.16,0 1.72,0 0.16,0 0.33,0 0.49,0 0.56,0 1.16,0.1 1.72,0.1 0.03,0 0.14,0 0.17,0 0.63,0 1.26,0 1.89,0 0.13,0 0.3,0 0.43,0 0.52,0 1.04,0 1.56,0 0.16,0 0.26,0 0.41,0 0.62,0 1.26,0 1.87,0 0.12,0 0.24,0 0.37,0 0.52,0 1.02,0 1.54,0 0.19,0 0.33,0 0.52,0 0.64,0 1.24,0 1.87,0 h 7405.69 c 481.6,0 919,-282.4 1116.8,-721.2 l 1846.8,-4090.2 c -164.2,-53.6 -328,-103.5 -492,-149.9"
           style="fill:#e8e7f2;fill-opacity:1;fill-rule:nonzero;stroke:none"
           id="path220" /></g><g
         id="g222"
         transform="scale(1.01337)"><path
           d="m 16300,9920.19 h -568.1 l -564.2,1250.11 -154,341.2 c 166.5,47.1 332.7,97.7 499.4,152.2 v 0 L 16300,9920.19"
           style="fill:#c8c8e1;fill-opacity:1;fill-rule:nonzero;stroke:none"
           id="path224" /></g><path
         d="m 9981.97,12988.3 c -504.56,37.2 -1350.51,-1116.5 59.23,-1051.7 1409.7,64.7 604.6,1002.7 -59.23,1051.7"
         style="fill:#000072;fill-opacity:1;fill-rule:nonzero;stroke:none"
         id="path226" /><path
         d="m 9424.16,13147 c 0,-176.9 -143.43,-320.3 -320.34,-320.3 -176.93,0 -320.35,143.4 -320.35,320.3 0,176.9 143.42,320.4 320.35,320.4 176.91,0 320.34,-143.5 320.34,-320.4"
         style="fill:#000072;fill-opacity:1;fill-rule:nonzero;stroke:none"
         id="path228" /><path
         d="m 11099.6,13191.9 c 0,-177 -143.4,-320.4 -320.3,-320.4 -176.9,0 -320.3,143.4 -320.3,320.4 0,176.9 143.4,320.3 320.3,320.3 176.9,0 320.3,-143.4 320.3,-320.3"
         style="fill:#000072;fill-opacity:1;fill-rule:nonzero;stroke:none"
         id="path230" /><path
         d="m 10276.3,13659.6 c 0,-226.5 -183.6,-410.1 -410.07,-410.1 -226.45,0 -410.04,183.6 -410.04,410.1 0,226.4 183.59,410 410.04,410 226.47,0 410.07,-183.6 410.07,-410"
         style="fill:#000072;fill-opacity:1;fill-rule:nonzero;stroke:none"
         id="path232" /><g
         id="g234"
         transform="scale(1.04007)"><path
           d="m 6813.38,9841.96 h 8794.92 l -2480.9,5495.64 c -167.1,370.2 -537.6,609.5 -944,609.5 H 4857.84 c -178.93,0 -337.22,-86.1 -434.28,-236.5 -97.04,-150.3 -110.47,-330 -36.86,-493 z M 15881.6,9489.1 H 6699.43 c -69.36,0 -132.27,40.67 -160.81,103.84 L 4065.07,15072.4 c -122.04,270.4 -98.85,580.5 62.07,829.6 160.9,249.3 434.06,398 730.7,398 h 7325.56 c 544.7,0 1041.6,-320.7 1265.7,-817.3 l 2593.2,-5744.58 c 24.7,-54.61 19.9,-117.97 -12.6,-168.26 -32.5,-50.38 -88.2,-80.76 -148.1,-80.76"
           style="fill:#000072;fill-opacity:1;fill-rule:nonzero;stroke:none"
           id="path236" /></g><g
         id="g238"
         transform="scale(1.41598)"><path
           d="M 15971.8,6443.33 H 4971.56 c -181.21,0 -328.12,146.9 -328.12,328.12 0,181.21 146.91,328.11 328.12,328.11 H 15971.8 c 181.2,0 328.2,-146.9 328.2,-328.11 0,-181.22 -147,-328.12 -328.2,-328.12"
           style="fill:#d0cfe5;fill-opacity:1;fill-rule:nonzero;stroke:none"
           id="path240" /></g><g
         id="g242"
         transform="scale(1.39779)"><path
           d="M 16179.7,6527.16 H 14824 v 0 h 1355.6 c 42.4,0 82.8,7.86 120,22.32 -37.2,-14.46 -77.6,-22.32 -119.9,-22.32 m 119.9,22.32 c 0.1,0.07 0.3,0.07 0.4,0.14 -0.1,-0.07 -0.3,-0.07 -0.4,-0.14"
           style="fill:#000072;fill-opacity:1;fill-rule:nonzero;stroke:none"
           id="path244" /></g><path
         d="m 6575,9589.9 c 0,0 0,0.1 0,0.2 0,-0.1 0,-0.2 0,-0.2 m 0.01,1.7 v 0 0"
         style="fill:#b2b2d4;fill-opacity:1;fill-rule:nonzero;stroke:none"
         id="path246" /><g
         id="g248"
         transform="scale(1.41598)"><path
           d="M 15971.8,6443.33 H 14633.6 4971.56 c -2.12,0 -4.24,0 -6.35,0.07 -178.28,3.39 -321.77,148.95 -321.77,328.05 v 0 c 0,0.42 0,0.77 0,1.2 0,0 0,0.07 0,0.14 0,0.35 0.01,0.7 0.01,1.06 v 0 c 0.37,49.79 12.13,96.68 32.29,138.84 52.83,-110.38 165.25,-186.87 295.82,-186.87 H 15971.9 c 130.5,0 242.9,76.49 295.8,186.87 20.4,-42.8 32.3,-90.61 32.3,-141.24 0,-139.34 -86.9,-258.34 -209.3,-305.94 -0.2,-0.07 -0.3,-0.07 -0.4,-0.14 v 0 c -36.8,-14.27 -76.7,-22.04 -118.5,-22.04"
           style="fill:#9190c2;fill-opacity:1;fill-rule:nonzero;stroke:none"
           id="path250" /></g><g
         id="g252"
         transform="scale(1.42723)"><path
           d="m 4932.36,6914.99 c -108.61,0 -196.98,-88.35 -196.98,-196.95 0,-108.61 88.37,-196.96 196.98,-196.96 H 15845.8 c 108.6,0 197.1,88.35 197.1,196.96 0,108.6 -88.5,196.95 -197.1,196.95 z M 15845.8,6263.94 H 4932.36 c -250.4,0 -454.12,203.75 -454.12,454.1 0,250.41 203.72,454.09 454.12,454.09 H 15845.8 c 250.5,0 454.2,-203.68 454.2,-454.09 0,-250.35 -203.7,-454.1 -454.2,-454.1"
           style="fill:#000072;fill-opacity:1;fill-rule:nonzero;stroke:none"
           id="path254" /></g><g
         id="g256"
         transform="scale(1.02141)"><path
           d="m 16044.1,8805.86 c -456.1,459.85 -199.4,961.71 0,1162.7 l 255.9,-252.2 c -53.8,-55.61 -306.7,-349.02 -0.8,-657.52 l -255.1,-252.98"
           style="fill:#000072;fill-opacity:1;fill-rule:nonzero;stroke:none"
           id="path258" /></g><g
         id="g260"
         transform="scale(1.72591)"><path
           d="m 16300,15482.8 -1201.6,-2351.3 c -136.9,168.5 -278.1,314.1 -420.3,439.7 -911.3,806.5 -1853.7,804.5 -1853.7,804.5 558.8,579.1 1388.9,1042 1388.9,1042 1413.7,724.6 1870,477.2 2017.2,256.4 65.1,-98.3 69.5,-191.3 69.5,-191.3"
           style="fill:#726789;fill-opacity:1;fill-rule:nonzero;stroke:none"
           id="path262" /></g><g
         id="g264"
         transform="scale(1.70034)"><path
           d="m 14677.1,14147.4 c -317.3,229.4 -638.2,386.7 -928.6,494.6 -132,49 -266.2,90.5 -401.7,124.4 506.8,442.6 1094.7,776.3 1127.8,795 728.7,373.4 1183.6,476.8 1464.1,476.8 160.7,0 264.1,-34 328.7,-70.5 11.7,-6.6 22.5,-13.5 32.6,-20.6 -1.1,0 -2.2,-0.1 -3.3,-0.1 -62.3,8.4 -125.6,12.4 -189.3,12.4 -689.8,0 -1447.3,-465.1 -1927.3,-822.2 -204.9,-152.4 -182.7,-461.8 38.4,-589.7 201.5,-116.5 351.5,-264.9 458.6,-400.1"
           style="fill:#504882;fill-opacity:1;fill-rule:nonzero;stroke:none"
           id="path266" /></g><g
         id="g268"
         transform="scale(1.73642)"><path
           d="m 12968.3,14368.4 c 397.8,-54.9 1259,-273.5 2018.5,-1140.4 l 1113.4,2178.7 c -9.4,47.5 -44.2,157.6 -170.7,229.2 -173.8,98.4 -632.9,177.5 -1755.6,-397.8 -34.7,-19.5 -690.1,-391.7 -1205.6,-869.7 m 2038.6,-1414.3 c -29.3,0 -57.3,13.2 -76,36.3 -962.8,1185.1 -2172,1200.5 -2184.1,1200.5 -39.3,0 -74.8,23.6 -90.1,59.8 -15.4,36.2 -7.7,78 19.6,106.3 559,579 1369.3,1033.9 1403.6,1053.1 0.9,0.5 1.9,1.1 2.9,1.6 924.2,473.8 1580,605.6 1948.8,391.6 252.9,-146.7 267.1,-398.9 267.6,-409.5 0.8,-17 -2.9,-34 -10.6,-49.1 l -1194.4,-2337.1 c -15,-29.6 -44.1,-49.4 -77,-52.9 -3.4,-0.3 -6.9,-0.6 -10.3,-0.6"
           style="fill:#000072;fill-opacity:1;fill-rule:nonzero;stroke:none"
           id="path270" /></g><g
         id="g272"
         transform="scale(1.7798)"><path
           d="m 15639.8,11561.1 c -64.7,-140.6 -137.6,-283.6 -219.3,-429.4 l -1187.1,2033.5 c 0,0 244.2,1337.5 1209.9,1935.4 138.5,86 321.6,24.3 384.2,-126.3 26.1,-62.9 54,-136.7 81.7,-220.5 l 0.2,-0.3 c 202,-610.1 390.6,-1758 -269.6,-3192.4"
           style="fill:#ff8dc1;fill-opacity:1;fill-rule:nonzero;stroke:none"
           id="path274" /></g><g
         id="g276"
         transform="scale(1.72222)"><path
           d="m 15988.8,11813.8 c -102.5,318.6 -225.8,601.8 -363.9,853.6 64.8,77.8 107.2,165.7 126.6,263 56.3,282.1 -102.1,559 -184.7,679.7 210.1,326 114.9,788.1 110.5,808.8 -10,46.4 -51,78.1 -96.7,78.1 -6.4,0 -12.9,-0.5 -19.4,-1.8 l -479.5,-96.1 c 184.6,394.8 478.8,843.1 929.8,1122.3 27.6,17.1 58.2,25.8 89.5,25.8 18,0 36.2,-2.9 54.2,-8.7 50,-16.1 90.2,-53.1 110.2,-101.5 11.1,-26.8 22.8,-55.9 34.6,-87.3 -36.9,15.9 -80,27.2 -128,27.2 -102.7,0 -228.1,-51.4 -364.3,-218.7 -177.6,-218.2 -271,-343.2 -320,-413.6 -20.3,-29.1 1.8,-67.2 34.9,-67.2 2.8,0 5.8,0.3 8.8,0.9 l 168.9,33.7 c 10.9,2.2 21.9,3.2 32.8,3.2 76.6,0 145.2,-53.2 162.5,-130.9 37.8,-169.6 65.7,-470.4 -53.1,-872 -23.7,-80 -17.8,-166.6 20.3,-240.9 69.4,-135.1 152.3,-394.4 20.9,-728.1 -26.8,-67.9 -29.1,-143.1 -7.2,-212.8 36.9,-117.5 106.8,-304.5 221.1,-486.9 -33.8,-75.7 -70.1,-152.4 -108.8,-229.8"
           style="fill:#b262a9;fill-opacity:1;fill-rule:nonzero;stroke:none"
           id="path278" /></g><g
         id="g280"
         transform="scale(1.80846)"><path
           d="m 14107.3,12972.9 1066,-1826 c 901,1715.6 525.2,3050.6 316.5,3554 -19.1,46.1 -57.4,81.3 -105,96.6 -46.9,15.2 -95.5,9.4 -136.8,-16.3 -820.6,-508 -1095.7,-1603.6 -1140.7,-1808.3 m 1069,-2111.8 c -33.5,0 -64.4,17.8 -81.3,46.7 l -1168.5,2001.4 c -11.3,19.4 -15.3,42.3 -11.2,64.4 10.1,55.4 259,1364.2 1233.6,1967.7 87.8,54.3 194.8,67.2 293.6,35.4 100.2,-32.3 180.8,-106.6 221,-203.7 225.3,-542.9 636.5,-2006.3 -405.2,-3863.8 -16.5,-29.4 -47.5,-47.8 -81.2,-48.1 h -0.8"
           style="fill:#000072;fill-opacity:1;fill-rule:nonzero;stroke:none"
           id="path282" /></g><g
         id="g284"
         transform="scale(1.69189)"><path
           d="m 15181.1,14520.5 678.9,135.9 c 0,0 107.8,-504.9 -138.7,-802.7 0,0 578.7,-701.7 -123.9,-1073.8 l -624.4,1069.5 c 0,0 89.7,409.1 208.1,671.1"
           style="fill:#726789;fill-opacity:1;fill-rule:nonzero;stroke:none"
           id="path286" /></g><g
         id="g288"
         transform="scale(1.67021)"><path
           d="m 15275.6,14045.6 560.1,-959.4 c 114.9,79.2 184.2,175.3 206.4,286.7 47.3,237.1 -125,510.5 -195.4,595.8 -31.1,37.7 -31,92.1 0.1,129.8 153.7,185.6 149,475.6 133.5,627.1 l -529.8,-106 c -84,-203.7 -151.5,-474.8 -174.9,-574 m 524.2,-1201.8 c -35.1,0 -69.1,18.2 -88,50.5 l -632.5,1083.4 c -12.9,22.2 -17,48.3 -11.5,73.2 3.7,17.4 94.6,428 217.5,700 13.5,30 40.6,51.4 72.8,57.9 l 687.7,137.7 c 54.7,10.8 107.9,-24.1 119.6,-78.6 4.6,-21.4 102.7,-497.8 -113.9,-834 85.2,-124.5 248.5,-410 190.4,-700.9 -39.7,-199.1 -172.5,-359.7 -394.4,-477.3 -15.2,-8.1 -31.6,-11.9 -47.7,-11.9"
           style="fill:#000072;fill-opacity:1;fill-rule:nonzero;stroke:none"
           id="path290" /></g><g
         id="g292"
         transform="scale(1.68838)"><path
           d="m 12076.8,14413.2 c 0,0 -962.9,29.5 -1917.8,-767.9 -66.2,-55.2 -132.2,-114.2 -197.74,-177.9 -82.15,-79.4 -164,-165.5 -244.37,-259.2 l -1159.16,2437.7 c 0,0 0.24,3.4 1.01,9.4 3.73,26.4 19.12,104 75.57,184.1 156.95,221.3 630.37,460.6 2053.59,-320.9 0,0 834.9,-497.4 1388.9,-1105.3"
           style="fill:#726789;fill-opacity:1;fill-rule:nonzero;stroke:none"
           id="path294" /></g><g
         id="g296"
         transform="scale(1.65251)"><path
           d="m 10355.7,14472 c -5.5,17.8 -11.2,35.6 -17,53.1 161.5,205.9 383.9,366.4 564,474.6 144.9,87.1 157.6,291.6 24.4,395.7 -784.6,613 -1320.86,771.5 -1665.49,771.5 -29.41,0 -57.36,-1.2 -83.99,-3.3 -53.8,31.7 -113.89,49.5 -175.31,52.6 9.44,6.3 19.49,12.4 30.14,18.1 63.54,34.5 162.36,65.7 312.31,65.7 286.05,0 757.84,-113.5 1523.74,-534 27.4,-16.5 426,-257.9 847.4,-600.8 -248.7,-69.6 -491.6,-164.1 -724.6,-283.2 -228.8,-117 -440.8,-253.8 -635.6,-410"
           style="fill:#504882;fill-opacity:1;fill-rule:nonzero;stroke:none"
           id="path298" /></g><g
         id="g300"
         transform="scale(1.68587)"><path
           d="m 8675.16,15684.2 1082.17,-2275.8 c 807.37,870.2 1700.57,1069.8 2111.77,1114.7 -517,507.7 -1180.4,909.6 -1215.7,930.9 -1144.13,628.2 -1618.66,557.4 -1799.7,459.1 -128.89,-70 -167.57,-181.6 -178.54,-228.9 M 9731.41,13127 c -4.45,0 -8.96,0.3 -13.47,0.9 -33.81,4.5 -63.05,25.8 -77.7,56.7 l -1160.88,2441.3 c -7.54,15.9 -10.8,33.4 -9.49,50.9 0.82,10.9 22.95,270.1 287.56,413.8 386.03,209.4 1057.2,54.5 1994.87,-460.6 1,-0.6 2,-1.2 3,-1.8 34.7,-20.7 855.6,-512.8 1414.1,-1125.5 27.3,-29.9 34,-73.4 17.1,-110.1 -17,-36.9 -54.7,-59.8 -94.8,-58.8 -12.7,0.4 -1257.6,20.2 -2283.83,-1171.8 -19.28,-22.3 -47.28,-35 -76.46,-35"
           style="fill:#000072;fill-opacity:1;fill-rule:nonzero;stroke:none"
           id="path302" /></g><g
         id="g304"
         transform="scale(1.63875)"><path
           d="m 8890.75,12366 c 65.84,-154.7 140.53,-312.3 224.68,-473 l 1351.87,2170.7 c 0,0 -223.6,1459.5 -1253.44,2138.7 -147.67,97.6 -348.37,36.3 -420.99,-125.3 -30.33,-67.4 -62.92,-146.6 -95.5,-236.7 l -0.37,-0.4 c -238.17,-656 -478.53,-1896.4 193.75,-3474"
           style="fill:#ff8dc1;fill-opacity:1;fill-rule:nonzero;stroke:none"
           id="path306" /></g><g
         id="g308"
         transform="scale(1.62321)"><path
           d="m 9130.77,12392.2 c -33.39,73.7 -64.75,146.7 -94.19,218.9 89.94,206.2 133,395.3 174.89,516.2 25.33,73.2 86.07,196.1 59.76,269 -129.31,357.9 -8.87,553.7 68.82,695 42.63,77.5 51.44,169.2 28.77,254.8 -113.79,429.6 -75.1,747.7 -29.88,926.4 20.33,80.2 92.04,134 171.39,134 13.06,0 26.36,-1.4 39.67,-4.5 l 178.1,-40.8 c 3.58,-0.9 7.15,-1.2 10.6,-1.2 34.38,0 58.1,39.1 37.77,70.2 -49.85,76.1 -145.15,211.5 -326.89,448.4 -143.36,186.7 -278.34,243 -389.1,243 -47.19,0 -90.07,-10.2 -127.22,-25 13.56,32.9 26.74,63.4 39.37,91.5 22.73,50.7 66.41,88.7 119.94,104.3 17.5,5.1 35.18,7.6 52.62,7.6 34.99,0 69.06,-10.2 99.24,-30.1 469.87,-309.8 768.27,-794.2 952.07,-1218.4 l -505.6,116.4 c -7.89,1.8 -15.78,2.6 -23.54,2.6 -47.31,0 -90.19,-32.1 -101.84,-80 -5.36,-21.9 -120.31,-509.1 92.6,-861.1 -91.3,-125.5 -267.62,-414.3 -216.42,-715.3 7.94,-46.9 20.94,-92 38.99,-135 -38.13,-78.9 -74.36,-159.7 -108.67,-242.5 -110.15,-265.8 -187.1,-519.7 -241.25,-744.4"
           style="fill:#b262a9;fill-opacity:1;fill-rule:nonzero;stroke:none"
           id="path310" /></g><g
         id="g312"
         transform="scale(1.64571)"><path
           d="m 9020.2,16077.2 c -17.19,0 -34.63,-2.5 -51.89,-7.5 -52.8,-15.4 -95.88,-52.8 -118.31,-102.8 -245.12,-546.5 -699.88,-2001 236.01,-3913.8 l 1228.39,1972.3 c -43.1,226.2 -310.9,1438.4 -1196.31,2022.2 -29.77,19.6 -63.37,29.6 -97.89,29.6 m 56.57,-4338 c -1.33,0 -2.61,0 -3.88,0.1 -37.07,1.4 -70.55,22.5 -87.75,55.3 -1085.91,2073.1 -588.19,3667.6 -323.81,4256.9 47.28,105.5 138.12,184.5 249.2,216.8 109.61,31.7 226.71,14.3 321.38,-48.1 1051.69,-693.4 1283.99,-2138.9 1293.39,-2200.1 3.7,-24.4 -1.4,-49.4 -14.5,-70.3 L 9164.52,11788 c -18.96,-30.4 -52.14,-48.8 -87.75,-48.8"
           style="fill:#000072;fill-opacity:1;fill-rule:nonzero;stroke:none"
           id="path314" /></g><g
         id="g316"
         transform="scale(1.5003)"><path
           d="m 11220.2,16124.9 -760.8,175.1 c 0,0 -137.8,-565.7 130.4,-909.3 0,0 -674.92,-772.3 105.1,-1214.5 l 738.3,1185.5 c 0,0 -87.9,464 -213,763.2"
           style="fill:#726789;fill-opacity:1;fill-rule:nonzero;stroke:none"
           id="path318" /></g><g
         id="g320"
         transform="scale(1.51174)"><path
           d="m 10470.7,16040.3 c -21.8,-166.8 -36.1,-487 127.7,-696.8 33.2,-42.5 31.5,-102.7 -4,-143.3 -2.8,-3.2 -288.7,-337.1 -234.4,-652.6 21.1,-123.4 94.6,-231.5 218.7,-322.5 l 648.9,1042 c -22.7,110.2 -88.7,411.8 -175,639.3 l -581.9,133.9 m 143.2,-2084 c -18.8,0 -37.9,4.7 -55.4,14.7 -241.5,136.8 -383,318.4 -420.6,539.6 -55,323.1 134.4,633.3 232.4,768 -228.6,378 -105.2,901.1 -99.4,924.7 14.5,59.9 74.4,96.7 134.6,83 l 755.1,-173.8 c 35.4,-8.1 64.6,-32.8 78.6,-66.2 127.1,-304.3 214.5,-760.6 218.1,-779.9 5.2,-27.8 -0.1,-56.5 -15.1,-80.5 l -732.7,-1176.5 c -21.2,-34.2 -57.9,-53.1 -95.6,-53.1"
           style="fill:#000072;fill-opacity:1;fill-rule:nonzero;stroke:none"
           id="path322" /></g><g
         id="g324"
         transform="scale(1.75186)"><path
           d="m 15814.1,9821.91 c 0,0 122.9,-164.91 330,-296.49 110.3,-70.15 132.6,-221.93 45.2,-318.8 -312.1,-346.26 -1000.4,-1006.02 -1767.7,-1071.32 -6.6,-0.74 -13.4,-1.2 -20.2,-1.71 0,0 -2739.4,-1771.78 -5057.27,187.23 0,0 -728.88,128.95 -1194.62,951.56 -31.1,55.14 -29.85,119.47 -2.68,171.93 15.3,30.37 39.33,56.57 70.9,74.55 55.14,31.57 126.26,62.62 213.2,81.86 0,0 -198.13,111.19 -354.77,446.48 -37.38,80.2 -10.44,176.3 62.91,225.6 80.88,54.1 182.09,139.3 243.28,255.4 27.23,51.5 46.41,109.3 52.46,173.2 4.4,45.4 11.42,139.6 28.88,270 6.57,49 14.62,102.9 24.55,161.5 18.21,107.5 42.47,230.1 75.75,362.9 183.35,737.2 633.27,1793.2 1762.61,2410.2 28.2,15.6 56.8,30.6 85.7,45.4 292.3,149.6 601.4,256.9 918.1,321.5 24.7,5.1 49.7,9.9 74.5,14.6 383.7,69.6 776.8,77.2 1163.8,21.6 46.4,-6.6 92.8,-14.3 138.9,-22.8 203.9,-37.4 405.7,-92.8 602.7,-165.9 59.7,-22.1 120.1,-46.1 180.9,-72.6 213.9,-92.1 434.1,-209.5 650.5,-360.3 563.3,-391.9 1101.1,-1007 1439.6,-1970.5 38.9,-110.2 74.8,-225 108,-344.5 0,0 1.7,-27.2 9,-72.6 5.1,-32.6 12.9,-74.3 24.8,-122.2 41,-164.1 129.7,-398.9 319.5,-571.8 l 0.2,-0.2 c 39.1,-36 82.4,-68.7 130.7,-97.9 89.3,-54.1 126.5,-166.3 84.5,-262.2 -72.8,-167 -211.7,-388.76 -443.9,-423.69"
           style="fill:#726789;fill-opacity:1;fill-rule:nonzero;stroke:none"
           id="path326" /></g><g
         id="g328"
         transform="scale(1.56744)"><path
           d="m 16300,9270.81 -181.6,-178.32 c -7.3,-0.82 -14.9,-1.33 -22.5,-1.91 0,0 -3061.7,-1980.24 -5652.3,209.26 0,0 294.7,1209.66 1351,1482.96 53.5,13.8 104.3,36.2 149.4,68 186.6,131.6 790.6,460.2 1697.4,9 69.1,-34.4 145.5,-51.6 222.7,-48.4 413.7,17.2 1838.2,-37.9 2435.9,-1540.59"
           style="fill:#ffffff;fill-opacity:1;fill-rule:nonzero;stroke:none"
           id="path330" /></g><g
         id="g332"
         transform="scale(1.3384)"><path
           d="m 15020,11356.1 c -597.2,0 -1019.6,468.2 -1019.6,468.2 -389.2,275.7 -220.3,555 -220.3,555 161.1,-71.2 291,-99.7 396,-99.7 284.2,0 385,209.4 420.6,349.8 93.1,-63 206.3,-106.6 332.8,-110.4 5.9,-0.2 11.9,-0.2 17.7,-0.2 76.9,-0.1 149.6,14.8 216.1,40 112.3,-165.8 300.4,-267 502.5,-267 12.8,0 25.6,0.5 38.4,1.2 372.6,23.7 551.5,62.6 551.5,62.6 44.3,-435.9 -378,-657.2 -378,-657.2 -305.4,-253.8 -598,-342.3 -857.7,-342.3"
           style="fill:#b2b2d4;fill-opacity:1;fill-rule:nonzero;stroke:none"
           id="path334" /></g><g
         id="g336"
         transform="scale(1.28461)"><path
           d="m 14245.8,15532.8 c 39.3,-153.8 -142.3,-265.9 -264.4,-164.4 -97.8,81.5 -218.6,154.9 -361,192.7 -368.4,97.8 429.3,738.9 625.4,-28.3"
           style="fill:#ffffff;fill-opacity:1;fill-rule:nonzero;stroke:none"
           id="path338" /></g><g
         id="g340"
         transform="scale(1.47771)"><path
           d="m 15048.3,13466.7 c -38.5,-108.5 86.6,-200 180.6,-133.4 131.2,93 310.8,173.2 545.2,182.1 525.9,20.2 -355.1,997.1 -725.8,-48.7"
           style="fill:#ffffff;fill-opacity:1;fill-rule:nonzero;stroke:none"
           id="path342" /></g><g
         id="g344"
         transform="scale(1.54386)"><path
           d="m 14262.1,16236.9 c -8,-9.1 -16,-17.9 -24.6,-27.8 -13.2,-18.2 -27.5,-35.3 -42.9,-51.5 -58.2,-75 -128.2,-153.2 -195.7,-249.4 -17.1,-23.7 -35,-47.1 -53.5,-70.8 -9.9,-11 -17.8,-24.3 -26.1,-37.5 l -24.8,-39.7 c -32.5,-53.5 -70,-104.1 -98.4,-163.9 -30.3,-58.2 -62.2,-116.3 -92.5,-176.6 l -82.4,-189 -21.3,-48 c -7.7,-16 -14,-32.2 -19.5,-49 l -36.1,-100 -74.1,-203.4 c -20.1,-69.7 -41.3,-140 -62.8,-210.8 l -32.8,-106.3 -16.6,-53.7 -13.5,-54.3 -55.3,-219.6 -29.8,-110.7 -14.9,-56 -11.8,-55.9 c -11.3,-53.5 -22.9,-106.9 -34.7,-160.6 -19.9,-87.9 -143.1,-94.3 -171.4,-8.8 -17.9,53.4 -35.3,107.1 -52.1,161.1 -45.5,151.8 -79.6,306.6 -115.4,462.9 l -13,59 -9.6,59.2 -17.9,119.3 c -12.1,79.6 -23.7,160 -34.2,240.8 -6.9,81.3 -11.9,163.4 -16.5,245.8 -4.2,82.4 -11.3,165.6 -6.1,249.6 l 8,254.3 c 8,85.7 19.6,171.9 30.3,259 l 8.3,65.6 c 2.7,21.7 8.8,43.5 12.9,65.5 l 22.1,99 7.1,33 6.4,28.1 c 28.1,5.8 56.5,11.3 84.6,16.6 435.3,79 881.4,87.6 1320.6,24.5"
           style="fill:#504563;fill-opacity:1;fill-rule:nonzero;stroke:none"
           id="path346" /></g><g
         id="g348"
         transform="scale(1.53556)"><path
           d="m 12912.8,16221.9 c -13.6,-7.5 -27.7,-14.7 -42.1,-21.1 6.6,1.7 13,3.9 19.4,6.4 l 2.2,-1.6 c 1.4,-1.1 2.7,-1.5 3.6,-2.2 -1.6,-4.5 -3.1,-8.6 -5.3,-12 l -4.4,-6.9 -5.3,-7.5 c -1.9,-2.2 -3.6,-4.7 -5.5,-6.9 -1.9,-2 -4.2,-4.4 -6.4,-7.8 -8.3,-12.4 -18,-21.9 -27.9,-33.8 -10,-13.3 -20.5,-25.8 -31.9,-37.6 -42.4,-55.2 -93.9,-112.5 -143.3,-183.1 -12.7,-17.2 -25.7,-34.7 -39.3,-51.9 -7.1,-8.2 -13.3,-17.9 -19.1,-27.7 l -18.3,-28.7 c -23.8,-39.4 -51.2,-76.5 -72.3,-120.6 -22.1,-42.6 -45.7,-85.3 -67.8,-129.6 l -60.7,-138.8 -15.2,-35.2 c -5.8,-11.6 -10.3,-23.5 -14.4,-35.7 l -26.6,-73.7 -54.3,-149.1 c -14.7,-51.2 -30.5,-102.7 -46.3,-154.5 l -23.8,-78.1 -12.5,-39.6 -9.7,-40 -40.7,-160.9 -21.6,-81.4 -11.1,-40.7 -8.6,-41.3 c -8.3,-39 -16.9,-78.4 -25.7,-117.7 -14.4,-64.6 -104.7,-69.3 -125.5,-6.7 -13,39.3 -25.8,79 -38.5,118.6 -33.3,111.1 -58.2,224.6 -84.5,339.6 l -9.4,42.9 -7.2,43.8 -13.3,87.2 c -8.6,58.8 -17.2,117.8 -25,177.1 -5,59.5 -8.6,119.6 -11.9,180.3 -3,60.4 -8.3,121.4 -4.7,183.1 l 5.8,186.7 c 4.7,49.4 11.1,99.5 17.5,149.6 32.2,17.8 64.8,34.9 97.8,51.8 333.5,170.6 686.1,293.1 1047.4,366.8 28.2,5.8 56.8,11.3 85,16.6 -28.2,-30.2 -61.5,-56.5 -98.6,-78.1"
           style="fill:#504563;fill-opacity:1;fill-rule:nonzero;stroke:none"
           id="path350" /></g><g
         id="g352"
         transform="scale(1.53543)"><path
           d="m 15392.8,16028 c -36.3,-30.8 -75.1,-64.1 -113.8,-102.3 -15.6,-15 -31.6,-29.6 -48.3,-44 -8.5,-7 -16,-15.3 -23.8,-23.9 l -22.9,-25.2 c -30.5,-34.3 -64.3,-65.9 -92.8,-105.3 -29.4,-37.9 -60.5,-75.8 -90.1,-115.2 l -84.5,-125.7 -21.6,-32 c -7.5,-10.2 -14.4,-21.3 -20.8,-32.7 l -39.1,-67.5 -80.3,-136.9 c -23.8,-47.6 -48.5,-95.5 -73.4,-143.8 l -37.4,-72.5 -19.1,-36.6 -16.9,-37.4 -69,-151.3 -36,-75.9 -18.3,-38.5 -15.8,-38.8 c -15.2,-37.1 -30.7,-74.3 -46.6,-111.4 -25.7,-60.6 -115.5,-49 -124.6,16.4 -5.8,41 -11.4,82 -16.4,123.3 -12.7,115.2 -16.9,231.6 -22.1,349.3 l -1.7,44.1 0.9,44 2.7,88.7 c 1.9,59 4.2,118.6 7.2,178.4 5.8,59.5 13,119.4 20.5,179.5 8,60.1 13.9,121.1 28.6,181.2 l 39.3,182.5 c 17.2,60.4 37.1,121.4 56.2,182.9 l 14.5,46 c 4.9,15.5 12.1,30.5 18.2,45.7 l 38.2,91.4 15,35.5 c 232.7,-42.7 462.9,-105.8 687.6,-189.3 68.2,-25.2 137.1,-52.6 206.4,-82.7"
           style="fill:#504563;fill-opacity:1;fill-rule:nonzero;stroke:none"
           id="path354" /></g><g
         id="g356"
         transform="scale(1.7242)"><path
           d="m 16300,10776.1 -102.1,35.8 c -54.3,18.5 -109.3,36.7 -164.8,54.7 -111.1,36 -224.8,68.4 -340.5,96.8 -58,15.7 -116.7,25.8 -176.2,40.2 -59.2,10.3 -119.6,24.8 -180.5,34.5 -123.1,25.7 -248.2,39.5 -384.9,66.4 27.6,20.2 56.5,38.2 85.9,56.5 29.5,17.3 59.4,35.2 90.5,48.6 30.9,14.2 62.2,28.1 94,41.4 32.1,12.6 64.4,22.2 97.2,33 l 49.4,15.1 c 16.5,4.7 33,7.9 49.8,12.1 33.3,7.6 66.9,14.3 100.6,21.4 67.6,9.2 136.2,19.5 204.6,22.8 83.8,5.7 168.2,6.1 252.3,1.7 41.7,-166.8 131.8,-405.3 324.7,-581"
           style="fill:#504563;fill-opacity:1;fill-rule:nonzero;stroke:none"
           id="path358" /></g><g
         id="g360"
         transform="scale(1.68719)"><path
           d="m 16300,11733 c -43.1,12.1 -86.7,23.2 -130.6,34 -59.2,16.2 -119,26.5 -179.7,40.9 -60.6,10.6 -122.3,25.7 -184.6,35.5 -125.8,26 -253.6,40.1 -393.6,67.9 28.5,20.6 58.1,39 88.1,57.7 29.9,17.6 60.5,36 92.2,49.7 31.8,14.6 63.8,28.7 96.4,42.1 32.4,13.1 65.7,22.9 99,33.7 l 50.4,15.7 c 16.9,4.8 34.1,8.1 50.9,12.3 34.1,7.8 68.6,14.7 103.2,21.7 61.5,8.6 124,17.7 186.8,21.9 40.4,-114.4 77.6,-233.7 112.2,-357.7 0,0 1.8,-28.2 9.3,-75.4"
           style="fill:#504563;fill-opacity:1;fill-rule:nonzero;stroke:none"
           id="path362" /></g><g
         id="g364"
         transform="scale(1.17916)"><path
           d="m 13833.8,15927.4 c -199.9,-39.4 -382.8,-59.6 -562.8,-97.1 -89.1,-14 -177.4,-35.3 -264,-50.5 -87,-20.9 -172.9,-35.7 -257.7,-58.8 -99.9,-24.6 -198.3,-50.9 -295.8,-79.4 40.5,76.5 69,162.4 78,257.3 6.5,67.4 16.9,207.4 42.9,401.1 43.7,-0.8 87.3,-2.9 130.6,-5.8 99.9,-4.6 200.2,-19.5 299.1,-33.2 49.4,-10.4 98.5,-19.8 147.1,-31.4 24.5,-5.8 48.7,-10.4 72.9,-17.6 l 72.1,-22.1 c 48.1,-15.4 95.3,-29.9 141.8,-48.3 46.9,-19.1 92.7,-39.3 137.9,-60.6 45.4,-19.1 89,-45.8 132.3,-71 43,-26.4 85.2,-53.1 125.6,-82.6"
           style="fill:#504563;fill-opacity:1;fill-rule:nonzero;stroke:none"
           id="path366" /></g><g
         id="g368"
         transform="scale(1.23553)"><path
           d="m 13021.6,15969.9 c -191.1,-37.9 -365.7,-56.9 -537.5,-92.7 -85,-13.5 -169.4,-34.1 -252,-48.2 -66.4,-15.8 -131.8,-28.2 -196.6,-43.7 25.8,152.5 60.2,326.4 107.4,514.7 29,-3.8 57.9,-7.9 86.4,-12.1 47.2,-9.6 94.3,-18.9 140.9,-29.6 23,-5.8 46.4,-10.3 69.5,-16.8 l 68.9,-21.1 c 45.4,-15.1 90.9,-28.5 135.2,-46.1 44.5,-18.5 88.2,-37.9 131.2,-57.8 43.4,-18.6 85.4,-43.8 126.4,-67.8 40.9,-25.5 81.2,-50.7 120.2,-78.8"
           style="fill:#504563;fill-opacity:1;fill-rule:nonzero;stroke:none"
           id="path370" /></g><g
         id="g372"
         transform="scale(1.74017)"><path
           d="m 14633.6,8303 48.5,47.58 c -130.3,327.56 -304.2,578.74 -498.3,771.08 483.9,506.56 860.5,1139.54 1013,1814.84 59.8,-9.5 119.2,-23.7 177.3,-33.9 58.9,-14.2 117.1,-24.2 174.5,-39.8 114.6,-28.2 227.3,-60.2 337.4,-95.9 24,-7.8 48,-15.7 71.9,-23.6 70.6,-93 160.1,-179.7 273.5,-248.5 48.7,-29.5 68.6,-90.3 46.3,-141.4 -66.7,-152.7 -185.3,-340.7 -371.8,-368.77 -34,-5.12 -62.8,-27.7 -75.9,-59.48 -13,-31.78 -8.5,-68.1 12.1,-95.68 5.5,-7.36 137,-181.94 358,-322.62 29.2,-18.56 48.6,-48.67 53.2,-82.52 4.5,-33.38 -5.4,-65.51 -27.9,-90.5 -310.6,-344.92 -914.2,-915.15 -1591.8,-1030.83 m -5198.75,167.4 c -3.51,1.03 -7.07,1.9 -10.63,2.59 -6.95,1.26 -696.14,135.04 -1134.72,909.91 -4.43,7.87 -7.47,16.15 -9.2,24.6 128.33,-151.31 335.03,-342.21 633.85,-470.13 3.51,-1.49 7.07,-2.18 10.52,-2.18 15,0 28.1,12.98 25.8,29.3 -5.98,43.1 -11.09,115.11 -0.11,209.06 1.72,14.54 13.79,23.39 26.14,23.39 7.07,0 14.2,-2.87 19.54,-9.19 72.06,-85.4 249.34,-279.98 528.34,-489.38 -41.55,-91.66 -70.68,-171.02 -89.53,-227.97"
           style="fill:#504882;fill-opacity:1;fill-rule:nonzero;stroke:none"
           id="path374" /></g><g
         id="g376"
         transform="scale(1.56744)"><path
           d="m 13219.2,8375.91 c -1005.9,0.07 -1912.8,336.86 -2705.6,1006.87 -11.3,9.57 -24.7,16.78 -39,21.05 20.9,63.23 53.2,151.33 99.4,253.09 512.9,-385.09 1336,-815.41 2452.2,-815.41 112.3,0 227.4,4.34 345.6,13.53 805.1,62.58 1687.6,552.11 2375.1,1271.86 215.4,-213.57 408.5,-492.44 553.1,-856.09 l -53.8,-52.82 c -52.3,-8.93 -104.9,-15.38 -157.9,-19.21 -18.2,-1.27 -35.8,-7.21 -51.1,-17.09 -7.6,-4.85 -766.3,-489.02 -1824.6,-702.62 -341,-68.84 -672.1,-103.16 -993.4,-103.16"
           style="fill:#b2b2d4;fill-opacity:1;fill-rule:nonzero;stroke:none"
           id="path378" /></g><g
         id="g380"
         transform="scale(1.67901)"><path
           d="m 15799.7,11607.9 c 13.7,100.9 22.3,202.2 25.6,304.3 19,-3.5 38,-7.1 56.8,-11.1 62.6,-9.8 124.7,-25 185.5,-35.7 61,-14.4 121.1,-24.8 180.6,-41 8.3,-2 16.6,-4.1 24.8,-6.2 4.1,-34.2 12.1,-87.5 27,-152.4 -3.4,0 -6.7,0 -10.1,0 -48,0 -96,-1.6 -143.7,-4.8 -70.3,-3.3 -140.7,-13.9 -210.1,-23.3 -34.7,-7.4 -69.2,-14.2 -103.3,-22.1 -11.1,-2.7 -22.1,-5.1 -33.1,-7.7 m 23.9,532.6 c -25.9,544.7 -210.7,1095.5 -606.9,1614.5 364.7,-373.4 698,-872.8 936.7,-1540.2 -28.1,-3.6 -56,-7.5 -83.8,-11.4 -34.7,-7.1 -69.4,-13.9 -103.6,-21.8 -17,-4.3 -34.2,-7.6 -51.2,-12.4 l -50.7,-15.7 c -13.5,-4.4 -27,-8.6 -40.5,-13"
           style="fill:#504882;fill-opacity:1;fill-rule:nonzero;stroke:none"
           id="path382" /></g><g
         id="g384"
         transform="scale(1.70364)"><path
           d="m 16300,10973.7 c -24.4,8 -48.9,16 -73.5,24 -112.4,36.5 -227.5,69.2 -344.6,97.9 -58.6,16 -118.1,26.2 -178.3,40.7 -59.3,10.4 -119.9,25 -181,34.7 20.1,88.9 36.4,178.8 48.6,269 10.8,2.6 21.7,4.9 32.6,7.6 33.7,7.8 67.7,14.5 101.8,21.8 68.5,9.2 137.9,19.7 207.1,23 47,3.1 94.3,4.7 141.6,4.7 3.3,0 6.6,0 10,0 32.8,-143.4 100.1,-344.7 235.7,-523.4"
           style="fill:#383068;fill-opacity:1;fill-rule:nonzero;stroke:none"
           id="path386" /></g><g
         id="g388"
         transform="scale(1.67623)"><path
           d="m 16300,11837.8 c -8.2,2.1 -16.5,4.2 -24.8,6.2 -59.7,16.3 -119.8,26.6 -181,41.1 -60.9,10.7 -123,25.9 -185.7,35.8 -18.9,3.9 -37.9,7.6 -56.9,11 2.4,76 1.9,152.3 -1.7,228.7 13.5,4.4 27,8.6 40.5,13.1 l 50.8,15.7 c 17,4.8 34.3,8.1 51.3,12.4 34.3,7.9 69,14.7 103.8,21.8 27.8,3.9 55.7,7.9 83.8,11.5 42,-117.2 81,-239.5 116.7,-367.3 0.7,-7.2 1.7,-17.3 3.2,-30"
           style="fill:#383068;fill-opacity:1;fill-rule:nonzero;stroke:none"
           id="path390" /></g><g
         id="g392"
         transform="scale(1.5284)"><path
           d="m 9617.48,11184.2 c -72.37,70.7 -172.01,191.3 -259.69,379 -19.62,42 -5.3,93.1 33.18,118.9 131.44,88 286.77,227.6 355.27,423.8 29.77,7.8 59.73,15.4 89.83,22.8 20.35,5.5 40.7,10.4 61.18,15.1 -2.82,-30.5 -4.91,-54.9 -6.61,-72.7 -6.94,-73.2 -28.92,-139.4 -60.13,-198.5 -70.14,-133 -186.14,-230.7 -278.85,-292.7 -84.01,-56.5 -60.65,-115 -17.8,-206.8 36.64,-78.4 63.73,-140.2 83.62,-188.9 m 332.89,1372.4 c -45.34,6 -90.94,11.1 -136.41,13.7 9.68,69.7 20.93,141.9 34.09,216.4 13.28,2.9 26.69,5.9 40.1,9.1 37.03,6.3 74.52,14.3 112.25,22 -19.47,-90 -35.37,-174.5 -48.52,-252.1 -0.53,-3.1 -1.05,-6.1 -1.51,-9.1 m 125.53,566.6 -19.9,6 c -18.7,5.3 -37.6,8.9 -56.23,13.7 -24.21,5.5 -48.55,10.6 -73.01,15.6 222.64,899.1 733.74,1980.5 1893.44,2644.3 -0.5,-4.7 -0.9,-9.3 -1.4,-14.1 l -5.8,-187.5 c -0.1,-1.1 -0.2,-2.3 -0.2,-3.4 -61.3,-39.6 -120.7,-80.4 -178.1,-122.3 -76.3,-55.6 -117.3,-145.5 -116.8,-239.9 1,-184.2 -123.1,-477.1 -337.8,-762.5 -228.1,-303.2 -492.6,-510.4 -671.3,-543.6 -91.1,-17 -169.6,-74 -206.2,-159.1 -96.8,-225.5 -170.5,-444.7 -226.7,-647.2 m 2701.5,2928.8 c 32.4,41.1 64,78.1 91.8,114.2 11.4,11.9 22,24.5 32,37.8 8.4,10.2 16.6,18.5 24.1,28.3 11.7,2.7 23.4,5.3 35.1,7.8 l -9.4,-42.2 c -4.2,-22.3 -10.3,-44.3 -13.1,-66.2 l -4.2,-33.1 c -52.4,-14.5 -104.4,-30 -156.3,-46.6 m 1724.2,170.5 c -75.6,8.5 -151.4,14.9 -227.2,19.2 16.2,19.9 32.1,39.3 47.3,58.3 66.7,-8.4 133.2,-18.5 199.6,-30.3 l -9.3,-22.2 c -3.3,-8.4 -7,-16.7 -10.4,-25"
           style="fill:#b9b3c4;fill-opacity:1;fill-rule:nonzero;stroke:none"
           id="path394" /></g><g
         id="g396"
         transform="scale(1.53138)"><path
           d="m 12908.6,16067.3 4.1,33 c 2.8,22 8.9,43.9 13.1,66.1 l 9.4,42.2 c 280.8,60.8 567.3,91.4 854.3,91.4 168.2,0 336.8,-10.6 504.3,-31.7 -15.1,-19 -30.9,-38.3 -47.1,-58.2 -78.6,4.6 -157.1,6.8 -235.7,6.8 -248.6,0 -496.9,-22.4 -741.9,-66.8 -28.3,-5.3 -56.9,-10.9 -85.2,-16.7 -92.4,-18.9 -184.3,-40.9 -275.3,-66.1"
           style="fill:#a8a2b1;fill-opacity:1;fill-rule:nonzero;stroke:none"
           id="path398" /></g><g
         id="g400"
         transform="scale(1.52206)"><path
           d="m 11862,15662.8 c 0.1,1.2 0.1,2.3 0.2,3.4 l 5.9,188.4 c 0.4,4.7 0.9,9.3 1.3,14.1 53.8,30.7 109.1,60.7 165.7,89.7 301.3,154 618.7,268.1 944.1,341.6 -7.5,-9.9 -15.8,-18.3 -24.3,-28.4 -10,-13.5 -20.7,-26.1 -32.1,-38 -27.9,-36.3 -59.7,-73.5 -92.2,-114.7 -213,-68.1 -421.3,-153.7 -622.7,-256.8 -33.3,-17 -66.3,-34.4 -98.7,-52.2 -85.8,-46.9 -168.2,-96 -247.2,-147.1"
           style="fill:#a8a2b1;fill-opacity:1;fill-rule:nonzero;stroke:none"
           id="path402" /></g><g
         id="g404"
         transform="scale(1.52556)"><path
           d="m 15289.2,16094 c -156,48.2 -314.2,87 -473.6,116.2 -52.9,9.8 -106.2,18.7 -159.5,26.2 -42.4,6.1 -85,11.6 -127.5,16.3 3.4,8.4 7.1,16.6 10.4,25 l 9.4,22.3 c 236.3,-41.9 469.8,-105 697.6,-189.6 14.3,-5.3 28.7,-10.9 43.2,-16.4"
           style="fill:#a8a2b1;fill-opacity:1;fill-rule:nonzero;stroke:none"
           id="path406" /></g><g
         id="g408"
         transform="scale(1.17868)"><path
           d="m 12638,15697.8 c 21.2,60.4 35.9,125 42.4,193.8 l 3.6,40.1 c 10.2,114.8 23.8,238.2 41.8,368.3 59,-3.4 118.1,-10 176.9,-17.7 -13.9,-82.5 -25.2,-158.7 -34.5,-228.3 -17.1,-127.4 -27.4,-231.5 -34.4,-307.1 -26.5,-6 -52.9,-12.4 -79.3,-19.5 -39,-9.6 -77.9,-19.5 -116.5,-29.6"
           style="fill:#a8a2b1;fill-opacity:1;fill-rule:nonzero;stroke:none"
           id="path410" /></g><g
         id="g412"
         transform="scale(1.23383)"><path
           d="m 12199.2,15839.4 c 26.1,147.4 58.2,301.8 97.5,460.6 30.3,-6.2 60.5,-12.5 90.5,-19.4 23.1,-5.8 46.5,-10.3 69.6,-16.8 l 24.7,-7.6 c -16.6,-59.6 -31.9,-118.1 -46.1,-175.2 -17.5,-69.8 -33.2,-137.5 -47.4,-203 -46.8,-9.6 -93.2,-19.5 -139.1,-27.3 -16.6,-3.9 -33.2,-7.7 -49.7,-11.3"
           style="fill:#a8a2b1;fill-opacity:1;fill-rule:nonzero;stroke:none"
           id="path414" /></g><g
         id="g416"
         transform="scale(1.76347)"><path
           d="m 11974.7,14154.8 c -547,0 -1092.2,-127.9 -1587.1,-381 -1487.29,-760.5 -1834.9,-2284.5 -1909.75,-3125.2 l -2.44,-26.8 c -22.51,-239.6 -195.24,-402.4 -336.21,-496.9 -33.35,-22.4 -45.76,-66.6 -28.75,-103 138.42,-296.34 311.15,-399.54 312.9,-400.57 34.31,-19.96 53.2,-59.14 47.07,-98.38 -6.07,-39.24 -35.27,-70.94 -74,-79.56 -65.84,-14.63 -128.05,-38.5 -184.75,-70.94 -39.98,-22.91 -54.16,-73.83 -31.7,-113.53 432.78,-764.63 1112.87,-896.64 1119.73,-897.89 16.56,-3.06 32.32,-10.43 45.19,-21.26 704.61,-595.53 1510.81,-894.89 2404.91,-894.94 285.5,0 579.8,30.5 882.9,91.69 940.7,189.85 1615,620.2 1621.7,624.51 13.6,8.79 29.3,14.06 45.5,15.2 724.9,51.88 1383.2,670.27 1711.1,1034.27 22.3,24.67 32,56.36 27.5,89.31 -4.5,33.4 -23.7,63.12 -52.4,81.43 -218.2,138.82 -347.9,311.09 -353.4,318.35 -20.2,27.22 -24.7,63.06 -11.8,94.42 12.9,31.35 41.3,53.64 74.8,58.69 184.1,27.73 301.1,213.2 366.9,363.9 22,50.5 2.4,110.4 -45.6,139.5 -451.7,273.6 -518.6,836.9 -526.4,924.6 -464.9,1661.3 -1507.7,2361.5 -2301.4,2656.3 -392,145.6 -803.8,217.8 -1214.5,217.8 m -206.6,-6899.66 c -774.7,0 -1679,211.12 -2529.02,921.48 -141.49,32.44 -792.48,219.46 -1227.07,987.26 -74.63,131.9 -28.02,300.61 103.82,376.03 21.5,12.3 43.61,23.7 66.24,34.08 -74.63,76.72 -166.32,194.67 -246.45,366.26 -56.93,121.85 -15.54,270.15 96.18,345.05 106.21,71.1 236.07,190.4 251.49,354.5 l 2.33,25.8 c 16.95,190.2 68.44,768.7 341.03,1426.3 348.46,840.5 911.38,1464.2 1673.05,1853.7 914.7,467.7 1992.3,530.5 2956.7,172.3 837.2,-311 1937.1,-1048.3 2422.7,-2794.4 1.7,-6.5 2.9,-13 3.3,-19.7 0.3,-5.2 41.5,-544.5 434.6,-782.6 130.3,-79 183,-243.1 122.5,-381.7 -67.4,-154.39 -180.5,-337.5 -358.8,-427.72 51.3,-50.69 122.3,-112.62 209,-167.73 76.8,-48.89 127.8,-128.39 140,-218.27 12.1,-88.75 -15.3,-177.89 -75.3,-244.46 -343.8,-381.58 -1034,-1027.41 -1816.3,-1095.63 -124.8,-77.12 -768.6,-455.75 -1660.7,-636.98 -269.6,-54.84 -577.7,-93.57 -909.3,-93.57"
           style="fill:#000072;fill-opacity:1;fill-rule:nonzero;stroke:none"
           id="path418" /></g><g
         id="g420"
         transform="scale(1.01199)"><path
           d="m 16051.4,14291.1 c -43.5,56.3 -80,112.1 -114.9,171.8 -35.1,58.8 -66.9,120.2 -96.7,182.7 -29,62.9 -56.4,127 -77.5,194.2 -21,66.8 -40,135.8 -41.5,206.2 11.9,-13.1 23.4,-26 34,-38.6 l 35.6,-36 c 23.5,-23.6 46.8,-46.6 71.8,-68.6 49.1,-44.1 97.8,-87.7 147.7,-130.1 l 147.6,-127.6 c 48.9,-41.8 97.8,-86.2 142.5,-127.6 l -248.6,-226.4"
           style="fill:#000072;fill-opacity:1;fill-rule:nonzero;stroke:none"
           id="path422" /></g><g
         id="g424"
         transform="scale(1.62415)"><path
           d="m 15467.1,8853.72 208,170.61 c 69.7,57.51 138.9,115.69 207.8,174.49 68.7,59.05 136.4,119.14 203.6,180.28 67.9,60.59 135.9,120.99 213.5,176.83 -33.7,-89.21 -82.3,-169.87 -136.1,-245.79 -55.1,-74.81 -112.4,-148.32 -173,-218.7 -60.1,-70.74 -122.6,-139.52 -187.3,-206.13 -32.3,-33.38 -65.2,-66.13 -99.1,-97.96 -33.8,-32.27 -67,-63.67 -103.7,-95.01 l -133.7,161.38"
           style="fill:#000072;fill-opacity:1;fill-rule:nonzero;stroke:none"
           id="path426" /></g><g
         id="g428"
         transform="scale(1.70666)"><path
           d="m 16166.1,10008.2 c -17.4,17.3 -32.3,36.8 -46.8,57 -14.2,20.4 -27.8,41.6 -40.1,63.9 -12.7,22.1 -24.5,45.1 -34.5,70 -9.8,24.8 -18.3,51.8 -21.9,81.6 29.2,-5.5 55.6,-11.9 80.4,-20.5 24.9,-8.5 48.3,-18.5 70.8,-29.4 22.9,-10.5 44.8,-22.1 66.1,-34.3 21,-12.4 41.7,-25.4 59.9,-40.6 l -133.9,-147.7"
           style="fill:#000072;fill-opacity:1;fill-rule:nonzero;stroke:none"
           id="path430" /></g><g
         id="g432"
         transform="scale(1.30864)"><path
           d="m 16261.6,12025.7 c -62.4,-298.7 -257.7,-703.7 -853.6,-771.6 -299,-34.2 -517.4,57.2 -676.4,199.6 -352,315.3 -412.8,879.5 -412.8,879.5 799.6,-298.4 878.6,606.2 878.6,606.2 90.7,-967.3 1090.9,-587.3 1090.9,-587.3 0,0 11.7,-143.1 -26.7,-326.4"
           style="fill:#000072;fill-opacity:1;fill-rule:nonzero;stroke:none"
           id="path434" /></g><g
         id="g436"
         transform="scale(1.30556)"><path
           d="m 16300,12054.1 c -62.6,-299.4 -258.4,-705.4 -855.6,-773.5 -299.8,-34.2 -518.7,57.4 -678.1,200.1 186.8,298.4 668.6,861.5 1533.7,573.4"
           style="fill:#ff459a;fill-opacity:1;fill-rule:nonzero;stroke:none"
           id="path438" /></g><g
         id="g440"
         transform="scale(1.32064)"><path
           d="m 14355.4,12042.8 c 48.5,-184.1 151.8,-457.8 359.8,-623.8 148.2,-118.2 324.3,-163.8 538.4,-139.4 602.7,68.9 730.1,536.9 754.5,789.8 -186.9,-39.6 -486,-66.3 -726.7,83.7 -93.3,58.1 -168.5,135.9 -225.4,233 -54.3,-98 -130.4,-193.1 -236.7,-260.2 -132.5,-83.7 -287.8,-111.5 -463.9,-83.1 z m 790.8,-1027.1 c -225.4,0 -424.2,67.9 -592.8,202.7 -418,334.5 -490.1,962.2 -492.9,988.8 -4.9,44.4 13.7,88.1 49,115.6 35.3,27.4 82.2,34.5 124.1,19 185.2,-69.2 335.7,-68.6 447.3,1.5 215,134.9 249.8,486.6 250.2,490.2 6.2,66.3 61.7,117.1 128.2,117.1 h 0.1 c 66.5,0 122.1,-50.4 128.3,-116.7 21,-224.7 98.4,-380.1 229.9,-462.1 260.6,-162.4 672.8,-13.1 677,-11.5 37.8,14.3 80.2,10.2 114.5,-11.5 34.2,-21.7 56.3,-58.1 59.6,-98.4 31.3,-381.8 -134.4,-1129.6 -985.9,-1226.8 -46.5,-5.3 -92.1,-7.9 -136.6,-7.9"
           style="fill:#000072;fill-opacity:1;fill-rule:nonzero;stroke:none"
           id="path442" /></g><g
         id="g444"
         transform="scale(1.33585)"><path
           d="m 15005,12774.2 5.3,-50.3 c 2.3,-18.1 5.3,-36.2 8.2,-54.3 6,-36.3 14.2,-72 23.9,-106.6 18.2,-69.7 46.3,-134 79.8,-189.9 69.4,-111.1 168.6,-180.5 302.5,-201.4 16.4,-2.9 33.1,-5.6 50.6,-6.5 l 25.9,-2.2 28.7,-0.5 c 38.1,-0.4 76.8,-2.9 114.1,0.6 l 56.7,2.6 55.4,7 27.8,3.4 27,5.7 c 17.8,4 36.4,6.6 53.9,11.4 71.8,17 135.4,48.3 201.4,77.6 17.1,6.9 32.2,16.2 50.1,23.4 15.8,8.9 34.2,16.3 51,25.8 35.1,17.9 71.4,37.7 111.1,62.5 l 1.5,0.9 c 4.7,2.9 10.8,1.5 13.7,-3.2 0.9,-1.4 1.4,-2.9 1.5,-4.3 4.9,-51.2 -8.2,-100.1 -28.9,-144 -9.9,-22.7 -23.2,-42.7 -37,-63.1 -14.8,-18.8 -29.8,-38.8 -47.5,-55.1 -69.1,-68.8 -157.5,-111.3 -244.8,-145.1 -22,-8.4 -44.4,-14.8 -66.7,-21.9 l -33.6,-10.2 -33.8,-7.5 -68,-14.8 -68,-9.3 c -45.5,-7.2 -90.5,-8 -135.8,-10.6 l -34,-1.8 -36.6,0.9 c -24.3,0.2 -49.1,2.4 -74,5.4 -99.3,10.1 -201.6,44.4 -291.9,101.2 -90.8,56.4 -163.9,137.6 -216.2,224.5 -52.9,86.9 -85.1,180.5 -105.8,273 -10,46.5 -16.5,93.2 -20.6,139.8 -2.2,23.3 -3,46.7 -3.4,70.3 -0.3,24.5 -0.2,45.2 1.9,74.9 5,69.9 65.7,122.8 135.7,117.9 62.5,-4.4 111.3,-53.3 117.6,-113.5 l 1.3,-12.7"
           style="fill:#000072;fill-opacity:1;fill-rule:nonzero;stroke:none"
           id="path446" /></g><g
         id="g448"
         transform="scale(1.23006)"><path
           d="m 16295.9,13842.6 c 2.7,-28.3 3.5,-47.2 3.8,-70 0.3,-21.8 0.2,-43.5 -1.2,-65.2 -2.5,-43.2 -6.9,-86.5 -14.7,-129.6 -16.1,-86.1 -42.3,-173.3 -87.1,-255.9 -43.8,-82.3 -106.2,-160.7 -186,-218.8 -78.4,-59.4 -170.9,-97.2 -261.6,-114.6 -45.4,-9.1 -90.4,-13.1 -134.8,-14.8 -42.8,0.1 -84.4,1.1 -126.5,2.6 -85.4,10.5 -171.8,21 -256.7,58 -21.3,6.9 -41.9,19.2 -62.4,29.7 -10.3,5.6 -20.6,10.6 -30.5,16.8 l -29.1,20.6 c -9.4,7.1 -19,14 -28.1,21.5 -8.9,8.2 -17,17.1 -25.4,25.7 -17.3,16.3 -30.7,36.7 -43.8,56.6 -13.7,19.3 -21.8,42.7 -31.1,63.7 -6.5,22.9 -13.4,44.8 -15,68 -4.7,45.6 0.1,91.5 20.7,132.7 2,4 6.9,5.7 11,3.6 1.3,-0.5 2.3,-1.5 3.1,-2.6 l 0.7,-1 c 24.3,-34.8 48,-63.8 72.4,-88.4 11,-12.8 24.8,-23.1 35.6,-34.1 l 18.6,-14.3 c 5.5,-5.1 11.4,-9.7 18.1,-13.5 48.6,-33.3 98.3,-60 158,-75.2 58.3,-16.7 125.7,-17.9 191.5,-18.2 l 101.5,7 c 31.5,4.3 62.1,9.9 90.7,18.5 56.7,17.9 107.7,41 148.6,76.6 41.1,34.7 75.1,78.4 102,130.4 26.1,52.3 47,111.4 59.6,174.6 6.5,31.5 12.1,63.8 15.5,96.3 1.6,16.4 3.4,32.7 4.4,48.8 l 2.2,44.1 0.7,13.5 c 3.8,76.1 68.6,134.7 144.7,131 69.2,-3.4 123.9,-57.2 130.6,-124.1"
           style="fill:#000072;fill-opacity:1;fill-rule:nonzero;stroke:none"
           id="path450" /></g><g
         id="g452"
         transform="scale(1.18547)"><path
           d="m 14347.9,15420.5 c -29.3,-495.7 252.9,-915.6 630.4,-937.9 377.4,-22.4 707.3,361.4 736.5,857.1 29.4,495.8 -252.9,915.7 -630.4,938 -377.4,22.3 -707.2,-361.4 -736.5,-857.2"
           style="fill:#000072;fill-opacity:1;fill-rule:nonzero;stroke:none"
           id="path454" /></g><g
         id="g456"
         transform="scale(1.14941)"><path
           d="m 15479.6,16035.1 c -8.9,-149.4 76.2,-275.9 189.9,-282.6 113.7,-6.8 213,108.8 221.9,258.2 8.7,149.3 -76.3,275.8 -190,282.5 -113.7,6.8 -213,-108.8 -221.8,-258.1"
           style="fill:#ffffff;fill-opacity:1;fill-rule:nonzero;stroke:none"
           id="path458" /></g><g
         id="g460"
         transform="scale(1.42418)"><path
           d="m 16275.6,12835.8 c 24.4,-412.6 -210.5,-762.1 -524.8,-780.8 -314.2,-18.6 -588.6,300.9 -613.1,713.5 -24.3,412.7 210.6,762.2 524.8,780.8 314.2,18.5 588.7,-300.9 613.1,-713.5"
           style="fill:#000072;fill-opacity:1;fill-rule:nonzero;stroke:none"
           id="path462" /></g><g
         id="g464"
         transform="scale(1.37461)"><path
           d="m 16292.7,13408.1 c 7.3,-124.9 -63.8,-230.7 -158.9,-236.3 -95,-5.6 -178.1,91 -185.5,216 -7.4,124.8 63.7,230.6 158.8,236.2 95.1,5.6 178.1,-91 185.6,-215.9"
           style="fill:#ffffff;fill-opacity:1;fill-rule:nonzero;stroke:none"
           id="path466" /></g><g
         id="g468"
         transform="scale(1.28621)"><path
           d="m 15535.2,13026.9 c 447.4,-13.4 764.8,462.1 617.3,603.3 -59,56.6 -165.8,96.4 -272.8,123.9 -210.6,54.1 -431.6,60.7 -645.1,19.3 -108.4,-21.1 -217.4,-54.5 -279.6,-107.4 -155.8,-132.2 132.7,-625.7 580.2,-639.1"
           style="fill:#000072;fill-opacity:1;fill-rule:nonzero;stroke:none"
           id="path470" /></g><g
         id="g472"
         transform="scale(1.22926)"><path
           d="m 16052.7,14134.9 c -118.2,0 -212.2,35 -213.6,81.4 -1.6,48.8 100,91.6 226.9,95.5 6.4,0.3 12.6,0.3 18.8,0.3 118.2,0 212.3,-35.1 213.7,-81.5 1.5,-48.7 -100.1,-91.5 -226.9,-95.5 -6.4,-0.1 -12.7,-0.2 -18.9,-0.2"
           style="fill:#4d4d9d;fill-opacity:1;fill-rule:nonzero;stroke:none"
           id="path474" /></g><g
         id="g476"
         transform="scale(1.72008)"><path
           d="m 6093.61,13929.5 c 189.01,248.2 301.44,557.8 301.44,893.8 0,815.6 -661.13,1476.7 -1476.68,1476.7 -815.56,0 -1476.7,-661.1 -1476.7,-1476.7 0,-815.6 661.14,-1476.7 1476.7,-1476.7 226.84,0 441.66,51.3 633.71,142.7 l 664.14,-222.2 -122.61,662.4"
           style="fill:#ffffff;fill-opacity:1;fill-rule:nonzero;stroke:none"
           id="path478" /></g><g
         id="g480"
         transform="scale(1.70958)"><path
           d="m 6303.23,15206.6 c -232.92,516 -751.8,875.1 -1354.67,875.1 -602.87,0 -1121.77,-359 -1354.67,-875 134.57,624.1 690.87,1093.3 1354.67,1093.3 663.81,0 1220.14,-469.2 1354.67,-1093.4"
           style="fill:#ffffff;fill-opacity:1;fill-rule:nonzero;stroke:none"
           id="path482" /></g><g
         id="g484"
         transform="scale(1.73057)"><path
           d="m 5518.42,13506.4 c 10.57,0 21.16,-1.8 31.36,-5.2 l 501.06,-167.6 -91.36,493.5 c -5.03,27.4 1.67,55.7 18.61,77.9 182.77,239.9 279.33,526.4 279.33,828.5 0,754.7 -614.06,1368.8 -1368.87,1368.8 -754.81,0 -1368.9,-614.1 -1368.9,-1368.8 0,-754.9 614.09,-1368.9 1368.9,-1368.9 205.39,0 403.02,44.4 587.41,132.2 13.38,6.3 27.91,9.6 42.46,9.6 m 660.12,-418.6 c -10.52,0 -21.09,1.6 -31.38,5.1 l -622.98,208.4 c -200.55,-89.2 -414.2,-134.4 -635.63,-134.4 -863.8,0 -1566.57,702.7 -1566.57,1566.6 0,863.7 702.77,1566.5 1566.57,1566.5 863.8,0 1566.55,-702.8 1566.55,-1566.5 0,-330.9 -101.3,-645.5 -293.43,-912.7 l 114.06,-616.2 c 6.36,-34.4 -5.95,-69.6 -32.35,-92.6 -18.27,-15.9 -41.38,-24.2 -64.84,-24.2"
           style="fill:#000072;fill-opacity:1;fill-rule:nonzero;stroke:none"
           id="path486" /></g><g
         id="g488"
         transform="scale(1.55625)"><path
           d="m 6728.61,14827.1 -557.18,186.4 c -11.35,3.8 -23.13,5.7 -34.88,5.7 -16.18,0 -32.34,-3.6 -47.22,-10.6 -205.04,-97.6 -424.81,-147.1 -653.2,-147.1 -811.28,0 -1476.38,637.9 -1519.96,1438.5 188.07,-497.7 584.18,-913.2 1123.91,-1107.9 211.21,-76.2 427.03,-112.3 639.28,-112.3 338.48,0 667.84,91.9 954.4,259.8 l 94.85,-512.5"
           style="fill:#b2b2d4;fill-opacity:1;fill-rule:nonzero;stroke:none"
           id="path490" /></g><g
         id="g492"
         transform="scale(1.58834)"><path
           d="m 6731.82,14367.5 -719.23,240.6 c -207.98,-99 -440.62,-154.5 -686.28,-154.5 -883.2,0 -1599.17,716 -1599.17,1599.2 0,84.1 6.57,166.6 19.07,247.2 20.14,-112.6 50.65,-222.9 90.85,-329.3 42.7,-784.4 694.36,-1409.4 1489.25,-1409.4 223.78,0 439.12,48.4 640.01,144.1 14.58,6.9 30.41,10.4 46.27,10.4 11.51,0 23.05,-1.9 34.17,-5.6 l 545.92,-182.6 -92.93,502.1 c 37.4,21.8 73.98,45.1 109.8,69.5 -3.52,-4.7 -6.92,-9.6 -10.51,-14.3 l 132.78,-717.4"
           style="fill:#000072;fill-opacity:1;fill-rule:nonzero;stroke:none"
           id="path494" /></g><g
         id="g496"
         transform="scale(1.62461)"><path
           d="m 5772.13,16147.3 v 0 c -152.69,152.7 -400.26,125.4 -552.97,-27.3 l -23.76,-23.8 -23.77,23.8 c -152.7,152.7 -400.27,180 -552.97,27.3 h -0.01 c -152.7,-152.7 -152.7,-400.2 0,-552.9 l 23.77,-23.8 480.08,-480.1 c 40.26,-40.3 105.53,-40.3 145.79,0 l 480.08,480.1 23.76,23.8 c 152.71,152.7 152.71,400.2 0,552.9"
           style="fill:#ff0068;fill-opacity:1;fill-rule:nonzero;stroke:none"
           id="path498" /></g></g></g></svg>
