<svg xmlns="http://www.w3.org/2000/svg" width="150" viewBox="0 0 150 75" height="75" version="1.0"><defs><clipPath id="a"><path d="M 65.316406 5 L 108.816406 5 L 108.816406 47.460938 L 65.316406 47.460938 Z M 65.316406 5"/></clipPath><clipPath id="b"><path d="M 65.316406 4.710938 L 108.816406 4.710938 L 108.816406 47.460938 L 65.316406 47.460938 Z M 65.316406 4.710938"/></clipPath></defs><g clip-path="url(#a)"><path fill="#884CB2" d="M 105.371094 5.429688 C 104.375 5.617188 103.382812 5.859375 102.414062 6.167969 C 101.433594 6.460938 100.484375 6.828125 99.542969 7.226562 C 98.605469 7.636719 97.683594 8.078125 96.785156 8.570312 C 93.191406 10.542969 89.96875 13.15625 87.195312 16.121094 C 84.417969 19.089844 82.070312 22.40625 80.132812 25.914062 C 79.652344 26.792969 79.191406 27.679688 78.761719 28.585938 C 78.328125 29.488281 77.929688 30.40625 77.550781 31.335938 L 77.546875 31.347656 C 76.644531 30.664062 75.726562 30.03125 74.78125 29.441406 L 73.714844 28.785156 L 72.625 28.167969 C 71.902344 27.757812 71.152344 27.390625 70.40625 27.019531 C 68.894531 26.316406 67.359375 25.65625 65.722656 25.183594 C 66.640625 26.597656 67.601562 27.914062 68.539062 29.230469 L 71.339844 33.074219 L 72.679688 34.960938 C 73.121094 35.582031 73.546875 36.203125 73.949219 36.824219 C 74.15625 37.125 74.347656 37.4375 74.542969 37.742188 C 74.726562 38.046875 74.921875 38.347656 75.089844 38.648438 C 75.269531 38.949219 75.433594 39.246094 75.589844 39.539062 C 75.746094 39.832031 75.878906 40.121094 76.011719 40.398438 L 79.28125 47.078125 L 83.058594 39.574219 L 83.609375 38.476562 L 84.214844 37.304688 C 84.621094 36.523438 85.039062 35.738281 85.464844 34.960938 C 85.886719 34.179688 86.324219 33.40625 86.757812 32.632812 C 87.199219 31.859375 87.636719 31.089844 88.089844 30.332031 C 89.886719 27.277344 91.78125 24.304688 93.808594 21.425781 C 95.832031 18.546875 97.988281 15.761719 100.375 13.0625 C 100.976562 12.394531 101.574219 11.707031 102.214844 11.050781 L 103.167969 10.054688 L 104.15625 9.066406 C 104.820312 8.410156 105.507812 7.757812 106.214844 7.101562 L 108.394531 5.097656 C 107.378906 5.132812 106.363281 5.242188 105.371094 5.429688"/></g><g clip-path="url(#b)"><path fill="#884CB2" d="M 105.371094 5.429688 L 105.300781 5.058594 C 104.289062 5.246094 103.28125 5.492188 102.296875 5.804688 L 102.414062 6.167969 L 102.300781 5.804688 C 101.304688 6.105469 100.339844 6.476562 99.390625 6.878906 L 99.386719 6.878906 C 98.441406 7.292969 97.507812 7.742188 96.597656 8.242188 C 92.964844 10.234375 89.710938 12.875 86.914062 15.863281 C 84.113281 18.855469 81.746094 22.199219 79.796875 25.730469 L 79.796875 25.734375 C 79.3125 26.617188 78.847656 27.511719 78.414062 28.425781 L 78.417969 28.421875 C 77.976562 29.335938 77.578125 30.261719 77.195312 31.191406 L 77.191406 31.207031 L 77.1875 31.21875 L 77.546875 31.347656 L 77.777344 31.050781 C 76.871094 30.359375 75.941406 29.71875 74.984375 29.121094 L 73.917969 28.464844 L 73.90625 28.457031 L 72.816406 27.839844 C 72.082031 27.421875 71.320312 27.050781 70.578125 26.683594 L 70.570312 26.679688 C 69.050781 25.96875 67.496094 25.300781 65.828125 24.820312 C 65.675781 24.773438 65.511719 24.828125 65.414062 24.957031 C 65.320312 25.082031 65.3125 25.253906 65.398438 25.386719 C 66.324219 26.8125 67.289062 28.132812 68.226562 29.445312 L 68.226562 29.449219 L 71.027344 33.289062 L 72.367188 35.175781 C 72.804688 35.796875 73.226562 36.414062 73.625 37.027344 L 73.628906 37.035156 C 73.832031 37.328125 74.023438 37.636719 74.21875 37.945312 L 74.542969 37.742188 L 74.214844 37.933594 C 74.402344 38.246094 74.59375 38.546875 74.757812 38.832031 L 74.757812 38.839844 C 74.933594 39.136719 75.097656 39.429688 75.25 39.714844 C 75.398438 39.996094 75.53125 40.277344 75.667969 40.5625 L 78.9375 47.242188 C 79 47.371094 79.132812 47.453125 79.277344 47.457031 C 79.425781 47.457031 79.558594 47.375 79.625 47.246094 L 83.402344 39.742188 L 83.953125 38.644531 L 83.953125 38.648438 L 84.554688 37.476562 C 84.960938 36.699219 85.378906 35.917969 85.800781 35.140625 L 85.804688 35.136719 C 86.222656 34.363281 86.660156 33.589844 87.09375 32.816406 L 87.089844 32.816406 C 87.53125 32.046875 87.96875 31.277344 88.417969 30.523438 L 88.421875 30.519531 C 90.210938 27.472656 92.105469 24.511719 94.121094 21.644531 C 96.140625 18.773438 98.289062 15.996094 100.664062 13.3125 L 100.664062 13.316406 C 101.265625 12.644531 101.863281 11.957031 102.488281 11.316406 L 102.492188 11.3125 L 103.441406 10.316406 L 104.425781 9.332031 L 104.425781 9.335938 C 105.085938 8.679688 105.773438 8.03125 106.476562 7.375 L 106.472656 7.378906 L 108.652344 5.375 C 108.769531 5.269531 108.808594 5.101562 108.746094 4.953125 C 108.6875 4.808594 108.539062 4.714844 108.378906 4.71875 C 107.34375 4.753906 106.3125 4.867188 105.296875 5.058594 L 105.300781 5.058594 L 105.441406 5.800781 C 106.417969 5.617188 107.410156 5.507812 108.40625 5.476562 L 108.394531 5.097656 L 108.132812 4.820312 L 105.953125 6.824219 L 105.949219 6.824219 C 105.242188 7.484375 104.550781 8.136719 103.882812 8.800781 L 102.890625 9.792969 L 101.933594 10.792969 L 102.214844 11.050781 L 101.9375 10.789062 C 101.289062 11.453125 100.6875 12.148438 100.089844 12.8125 L 100.085938 12.8125 C 97.691406 15.523438 95.523438 18.324219 93.492188 21.210938 C 91.460938 24.097656 89.558594 27.078125 87.757812 30.140625 L 87.761719 30.136719 C 87.300781 30.902344 86.863281 31.675781 86.425781 32.445312 L 86.421875 32.449219 C 85.988281 33.222656 85.550781 33.996094 85.128906 34.78125 C 84.703125 35.5625 84.28125 36.347656 83.875 37.132812 L 83.871094 37.132812 L 83.269531 38.304688 L 83.265625 38.308594 L 82.714844 39.40625 L 79.285156 46.21875 L 76.359375 40.234375 C 76.226562 39.960938 76.089844 39.667969 75.925781 39.363281 C 75.769531 39.066406 75.601562 38.765625 75.421875 38.457031 L 75.089844 38.648438 L 75.425781 38.464844 C 75.246094 38.148438 75.050781 37.847656 74.871094 37.546875 L 74.867188 37.539062 C 74.675781 37.238281 74.480469 36.925781 74.265625 36.609375 L 73.949219 36.824219 L 74.269531 36.617188 C 73.863281 35.996094 73.4375 35.367188 72.996094 34.742188 L 72.992188 34.742188 L 71.652344 32.855469 L 71.652344 32.851562 L 68.847656 29.007812 L 68.539062 29.230469 L 68.851562 29.011719 C 67.910156 27.695312 66.953125 26.382812 66.042969 24.976562 L 65.722656 25.183594 L 65.613281 25.546875 C 67.222656 26.011719 68.738281 26.660156 70.242188 27.363281 L 70.40625 27.019531 L 70.234375 27.359375 C 70.980469 27.730469 71.726562 28.09375 72.433594 28.496094 L 73.519531 29.109375 L 74.578125 29.765625 L 74.578125 29.761719 C 75.511719 30.34375 76.421875 30.972656 77.3125 31.648438 C 77.40625 31.722656 77.535156 31.746094 77.652344 31.714844 C 77.769531 31.679688 77.863281 31.59375 77.90625 31.480469 L 77.910156 31.464844 L 77.550781 31.335938 L 77.90625 31.476562 C 78.285156 30.554688 78.675781 29.644531 79.109375 28.75 L 79.109375 28.746094 C 79.53125 27.851562 79.992188 26.96875 80.46875 26.09375 C 82.390625 22.609375 84.722656 19.320312 87.476562 16.378906 C 90.226562 13.441406 93.417969 10.851562 96.96875 8.902344 C 97.855469 8.417969 98.769531 7.976562 99.695312 7.574219 L 99.542969 7.226562 L 99.691406 7.574219 C 100.628906 7.179688 101.566406 6.816406 102.523438 6.527344 L 102.53125 6.527344 C 103.484375 6.222656 104.460938 5.988281 105.441406 5.800781 L 105.371094 5.429688"/></g><g fill="#291B25"><g><g><path d="M 18.859375 -15.0625 C 18.859375 -13.59375 18.332031 -12.179688 17.28125 -10.828125 C 16.726562 -10.117188 15.898438 -9.539062 14.796875 -9.09375 C 13.691406 -8.65625 12.390625 -8.4375 10.890625 -8.4375 L 7.609375 -8.4375 L 7.609375 0 L 2.3125 0 L 2.3125 -21.703125 L 10.890625 -21.703125 C 13.398438 -21.703125 15.351562 -21.050781 16.75 -19.75 C 18.15625 -18.457031 18.859375 -16.894531 18.859375 -15.0625 Z M 7.609375 -12.46875 L 10.890625 -12.46875 C 11.691406 -12.46875 12.320312 -12.703125 12.78125 -13.171875 C 13.25 -13.648438 13.484375 -14.273438 13.484375 -15.046875 C 13.484375 -15.816406 13.242188 -16.445312 12.765625 -16.9375 C 12.296875 -17.4375 11.671875 -17.6875 10.890625 -17.6875 L 7.609375 -17.6875 Z M 7.609375 -12.46875" transform="translate(-2.227 46.296)"/></g></g></g><g fill="#291B25"><g><g><path d="M 2.3125 0 L 2.3125 -22.875 L 7.609375 -22.875 L 7.609375 0 Z M 2.3125 0" transform="translate(16.725 46.296)"/></g></g></g><g fill="#291B25"><g><g><path d="M 12.828125 -5.46875 C 13.597656 -6.21875 13.984375 -7.269531 13.984375 -8.625 C 13.984375 -9.988281 13.597656 -11.035156 12.828125 -11.765625 C 12.066406 -12.492188 11.191406 -12.859375 10.203125 -12.859375 C 9.210938 -12.859375 8.335938 -12.488281 7.578125 -11.75 C 6.816406 -11.007812 6.4375 -9.957031 6.4375 -8.59375 C 6.4375 -7.238281 6.816406 -6.191406 7.578125 -5.453125 C 8.335938 -4.722656 9.210938 -4.359375 10.203125 -4.359375 C 11.191406 -4.359375 12.066406 -4.726562 12.828125 -5.46875 Z M 3.328125 -2.25 C 1.804688 -3.90625 1.046875 -6.019531 1.046875 -8.59375 C 1.046875 -11.175781 1.804688 -13.296875 3.328125 -14.953125 C 4.859375 -16.609375 6.722656 -17.4375 8.921875 -17.4375 C 11.117188 -17.4375 12.804688 -16.625 13.984375 -15 L 13.984375 -17.25 L 19.265625 -17.25 L 19.265625 0 L 13.984375 0 L 13.984375 -2.5 C 12.703125 -0.6875 10.988281 0.21875 8.84375 0.21875 C 6.695312 0.21875 4.859375 -0.601562 3.328125 -2.25 Z M 3.328125 -2.25" transform="translate(25.876 46.296)"/></g></g></g><g fill="#291B25"><g><g><path d="M 7.609375 -17.25 L 7.609375 -14.71875 C 8.703125 -16.53125 10.441406 -17.4375 12.828125 -17.4375 C 14.804688 -17.4375 16.410156 -16.773438 17.640625 -15.453125 C 18.867188 -14.140625 19.484375 -12.347656 19.484375 -10.078125 L 19.484375 0 L 14.21875 0 L 14.21875 -9.375 C 14.21875 -10.488281 13.925781 -11.347656 13.34375 -11.953125 C 12.757812 -12.554688 11.953125 -12.859375 10.921875 -12.859375 C 9.890625 -12.859375 9.078125 -12.554688 8.484375 -11.953125 C 7.898438 -11.347656 7.609375 -10.488281 7.609375 -9.375 L 7.609375 0 L 2.3125 0 L 2.3125 -17.25 Z M 7.609375 -17.25" transform="translate(46.682 46.296)"/></g></g></g><g fill="#291B25"><g><g><path d="M 7.140625 -19.203125 C 6.546875 -18.609375 5.816406 -18.3125 4.953125 -18.3125 C 4.085938 -18.3125 3.351562 -18.609375 2.75 -19.203125 C 2.15625 -19.796875 1.859375 -20.53125 1.859375 -21.40625 C 1.859375 -22.289062 2.15625 -23.03125 2.75 -23.625 C 3.351562 -24.21875 4.085938 -24.515625 4.953125 -24.515625 C 5.816406 -24.515625 6.546875 -24.21875 7.140625 -23.625 C 7.742188 -23.03125 8.046875 -22.289062 8.046875 -21.40625 C 8.046875 -20.53125 7.742188 -19.796875 7.140625 -19.203125 Z M 2.3125 0 L 2.3125 -17.25 L 7.609375 -17.25 L 7.609375 0 Z M 2.3125 0" transform="translate(93.045 46.296)"/></g></g></g><g fill="#291B25"><g><g><path d="M 9.640625 -4.484375 L 11.53125 -4.484375 L 11.53125 0 L 8.84375 0 C 6.90625 0 5.40625 -0.425781 4.34375 -1.28125 C 3.28125 -2.132812 2.75 -3.601562 2.75 -5.6875 L 2.75 -12.859375 L 1.140625 -12.859375 L 1.140625 -17.25 L 2.75 -17.25 L 2.75 -21.453125 L 8.046875 -21.453125 L 8.046875 -17.25 L 11.5 -17.25 L 11.5 -12.859375 L 8.046875 -12.859375 L 8.046875 -5.6875 C 8.046875 -4.882812 8.578125 -4.484375 9.640625 -4.484375 Z M 9.640625 -4.484375" transform="translate(102.197 46.296)"/></g></g></g></svg>